<mxfile host="app.diagrams.net" modified="2021-03-18T14:55:25.783Z" agent="5.0 (Windows NT 10.0; Win64; x64) AppleWebKit/537.36 (KHTML, like Gecko) Chrome/89.0.4389.90 Safari/537.36" etag="n0H57zmij2xa5JLkbfVQ" version="14.4.8" type="github" pages="3">
  <diagram id="hBPqvgBfnFxyGL7l_P_D" name="cas utilisation">
    <mxGraphModel dx="1038" dy="575" grid="1" gridSize="10" guides="1" tooltips="1" connect="1" arrows="1" fold="1" page="1" pageScale="1" pageWidth="827" pageHeight="1169" math="0" shadow="0">
      <root>
        <mxCell id="0" />
        <mxCell id="1" parent="0" />
        <mxCell id="tTAMLee8XRwoUaysmFKz-1" value="lecteur" style="shape=umlActor;verticalLabelPosition=bottom;verticalAlign=top;html=1;" parent="1" vertex="1">
          <mxGeometry x="70" y="80" width="30" height="60" as="geometry" />
        </mxCell>
        <mxCell id="tTAMLee8XRwoUaysmFKz-2" value="employé" style="shape=umlActor;verticalLabelPosition=bottom;verticalAlign=top;html=1;" parent="1" vertex="1">
          <mxGeometry x="70" y="280" width="30" height="60" as="geometry" />
        </mxCell>
        <mxCell id="tTAMLee8XRwoUaysmFKz-5" value="bénévole" style="shape=umlActor;verticalLabelPosition=bottom;verticalAlign=top;html=1;" parent="1" vertex="1">
          <mxGeometry x="70" y="490" width="30" height="60" as="geometry" />
        </mxCell>
        <mxCell id="tTAMLee8XRwoUaysmFKz-7" value="" style="rounded=0;whiteSpace=wrap;html=1;" parent="1" vertex="1">
          <mxGeometry x="138" y="20" width="622" height="580" as="geometry" />
        </mxCell>
        <mxCell id="tTAMLee8XRwoUaysmFKz-8" value="recherche un document" style="ellipse;whiteSpace=wrap;html=1;" parent="1" vertex="1">
          <mxGeometry x="190" y="30" width="90" height="50" as="geometry" />
        </mxCell>
        <mxCell id="tTAMLee8XRwoUaysmFKz-9" value="" style="endArrow=none;html=1;entryX=0.04;entryY=0.673;entryDx=0;entryDy=0;entryPerimeter=0;" parent="1" target="tTAMLee8XRwoUaysmFKz-8" edge="1">
          <mxGeometry width="50" height="50" relative="1" as="geometry">
            <mxPoint x="100" y="100" as="sourcePoint" />
            <mxPoint x="150" y="50" as="targetPoint" />
          </mxGeometry>
        </mxCell>
        <mxCell id="tTAMLee8XRwoUaysmFKz-10" value="achat nouveau doc" style="ellipse;whiteSpace=wrap;html=1;" parent="1" vertex="1">
          <mxGeometry x="150" y="150" width="80" height="50" as="geometry" />
        </mxCell>
        <mxCell id="tTAMLee8XRwoUaysmFKz-12" value="inscription des lecteurs" style="ellipse;whiteSpace=wrap;html=1;" parent="1" vertex="1">
          <mxGeometry x="170" y="320" width="90" height="40" as="geometry" />
        </mxCell>
        <mxCell id="tTAMLee8XRwoUaysmFKz-13" value="" style="endArrow=none;html=1;exitX=1;exitY=0.3333333333333333;exitDx=0;exitDy=0;exitPerimeter=0;" parent="1" source="tTAMLee8XRwoUaysmFKz-2" target="tTAMLee8XRwoUaysmFKz-10" edge="1">
          <mxGeometry width="50" height="50" relative="1" as="geometry">
            <mxPoint x="100" y="380" as="sourcePoint" />
            <mxPoint x="150" y="330" as="targetPoint" />
          </mxGeometry>
        </mxCell>
        <mxCell id="tTAMLee8XRwoUaysmFKz-14" value="" style="endArrow=none;html=1;entryX=0.019;entryY=0.547;entryDx=0;entryDy=0;entryPerimeter=0;exitX=1;exitY=0.3333333333333333;exitDx=0;exitDy=0;exitPerimeter=0;" parent="1" source="tTAMLee8XRwoUaysmFKz-2" target="tTAMLee8XRwoUaysmFKz-12" edge="1">
          <mxGeometry width="50" height="50" relative="1" as="geometry">
            <mxPoint x="100" y="380.0700000000001" as="sourcePoint" />
            <mxPoint x="160.11879331580758" y="376.99529963303" as="targetPoint" />
          </mxGeometry>
        </mxCell>
        <mxCell id="tTAMLee8XRwoUaysmFKz-15" value="gestion des prêts" style="ellipse;whiteSpace=wrap;html=1;" parent="1" vertex="1">
          <mxGeometry x="170" y="497.5" width="90" height="45" as="geometry" />
        </mxCell>
        <mxCell id="tTAMLee8XRwoUaysmFKz-18" value="" style="endArrow=none;html=1;entryX=0;entryY=0.5;entryDx=0;entryDy=0;" parent="1" target="tTAMLee8XRwoUaysmFKz-15" edge="1">
          <mxGeometry width="50" height="50" relative="1" as="geometry">
            <mxPoint x="100" y="510" as="sourcePoint" />
            <mxPoint x="163.58092164204686" y="525.2269590391345" as="targetPoint" />
          </mxGeometry>
        </mxCell>
        <mxCell id="tTAMLee8XRwoUaysmFKz-30" value="Enregistrer un nouveau document" style="ellipse;whiteSpace=wrap;html=1;" parent="1" vertex="1">
          <mxGeometry x="280" y="75" width="125" height="70" as="geometry" />
        </mxCell>
        <mxCell id="tTAMLee8XRwoUaysmFKz-35" value="Use" style="endArrow=open;endSize=12;dashed=1;html=1;entryX=0;entryY=0.5;entryDx=0;entryDy=0;exitX=0.991;exitY=0.397;exitDx=0;exitDy=0;exitPerimeter=0;" parent="1" source="tTAMLee8XRwoUaysmFKz-10" target="tTAMLee8XRwoUaysmFKz-30" edge="1">
          <mxGeometry width="160" relative="1" as="geometry">
            <mxPoint x="70" y="330" as="sourcePoint" />
            <mxPoint x="230" y="330" as="targetPoint" />
          </mxGeometry>
        </mxCell>
        <mxCell id="tTAMLee8XRwoUaysmFKz-36" value="Modifier fiche lecteur" style="ellipse;whiteSpace=wrap;html=1;" parent="1" vertex="1">
          <mxGeometry x="525" y="230" width="111" height="70" as="geometry" />
        </mxCell>
        <mxCell id="tTAMLee8XRwoUaysmFKz-37" value="Extends" style="endArrow=block;endSize=16;endFill=0;html=1;entryX=0;entryY=0.5;entryDx=0;entryDy=0;exitX=0.992;exitY=0.55;exitDx=0;exitDy=0;exitPerimeter=0;" parent="1" source="tTAMLee8XRwoUaysmFKz-40" target="tTAMLee8XRwoUaysmFKz-36" edge="1">
          <mxGeometry width="160" relative="1" as="geometry">
            <mxPoint x="400" y="470" as="sourcePoint" />
            <mxPoint x="390" y="560" as="targetPoint" />
          </mxGeometry>
        </mxCell>
        <mxCell id="tTAMLee8XRwoUaysmFKz-38" value="Extends" style="endArrow=block;endSize=16;endFill=0;html=1;exitX=1;exitY=0.5;exitDx=0;exitDy=0;" parent="1" source="tTAMLee8XRwoUaysmFKz-54" target="tTAMLee8XRwoUaysmFKz-39" edge="1">
          <mxGeometry width="160" relative="1" as="geometry">
            <mxPoint x="230" y="390" as="sourcePoint" />
            <mxPoint x="390" y="390" as="targetPoint" />
          </mxGeometry>
        </mxCell>
        <mxCell id="tTAMLee8XRwoUaysmFKz-39" value="mettre hors service un doc" style="ellipse;whiteSpace=wrap;html=1;" parent="1" vertex="1">
          <mxGeometry x="630" y="130" width="120" height="80" as="geometry" />
        </mxCell>
        <mxCell id="tTAMLee8XRwoUaysmFKz-40" value="consulter état lecteur" style="ellipse;whiteSpace=wrap;html=1;" parent="1" vertex="1">
          <mxGeometry x="341" y="260" width="120" height="80" as="geometry" />
        </mxCell>
        <mxCell id="tTAMLee8XRwoUaysmFKz-42" value="Extends" style="endArrow=block;endSize=16;endFill=0;html=1;entryX=0.006;entryY=0.438;entryDx=0;entryDy=0;entryPerimeter=0;" parent="1" source="tTAMLee8XRwoUaysmFKz-12" target="tTAMLee8XRwoUaysmFKz-40" edge="1">
          <mxGeometry width="160" relative="1" as="geometry">
            <mxPoint x="424.0000000000002" y="345" as="sourcePoint" />
            <mxPoint x="471.2903821803545" y="351.74891857669843" as="targetPoint" />
          </mxGeometry>
        </mxCell>
        <mxCell id="tTAMLee8XRwoUaysmFKz-43" value="Mise en circulation CD et Micro-film" style="ellipse;whiteSpace=wrap;html=1;" parent="1" vertex="1">
          <mxGeometry x="429" y="360" width="96" height="60" as="geometry" />
        </mxCell>
        <mxCell id="tTAMLee8XRwoUaysmFKz-45" value="Use" style="endArrow=open;endSize=12;dashed=1;html=1;entryX=0;entryY=0.5;entryDx=0;entryDy=0;exitX=1;exitY=0.5;exitDx=0;exitDy=0;" parent="1" source="tTAMLee8XRwoUaysmFKz-15" target="tTAMLee8XRwoUaysmFKz-43" edge="1">
          <mxGeometry width="160" relative="1" as="geometry">
            <mxPoint x="280" y="340" as="sourcePoint" />
            <mxPoint x="440" y="340" as="targetPoint" />
          </mxGeometry>
        </mxCell>
        <mxCell id="tTAMLee8XRwoUaysmFKz-46" value="&lt;span&gt;génération d&#39;une fiche de prêt&lt;/span&gt;" style="ellipse;whiteSpace=wrap;html=1;" parent="1" vertex="1">
          <mxGeometry x="630" y="340" width="110" height="80" as="geometry" />
        </mxCell>
        <mxCell id="tTAMLee8XRwoUaysmFKz-47" value="Use" style="endArrow=open;endSize=12;dashed=1;html=1;exitX=0.999;exitY=0.569;exitDx=0;exitDy=0;exitPerimeter=0;entryX=0.008;entryY=0.582;entryDx=0;entryDy=0;entryPerimeter=0;" parent="1" source="tTAMLee8XRwoUaysmFKz-43" target="tTAMLee8XRwoUaysmFKz-46" edge="1">
          <mxGeometry width="160" relative="1" as="geometry">
            <mxPoint x="509.9999999999998" y="403.75" as="sourcePoint" />
            <mxPoint x="550" y="420" as="targetPoint" />
          </mxGeometry>
        </mxCell>
        <mxCell id="tTAMLee8XRwoUaysmFKz-48" value="Emprunt de documents à la maison" style="ellipse;whiteSpace=wrap;html=1;" parent="1" vertex="1">
          <mxGeometry x="366" y="490" width="120" height="80" as="geometry" />
        </mxCell>
        <mxCell id="tTAMLee8XRwoUaysmFKz-49" value="Use" style="endArrow=open;endSize=12;dashed=1;html=1;exitX=1;exitY=0.5;exitDx=0;exitDy=0;" parent="1" source="tTAMLee8XRwoUaysmFKz-15" target="tTAMLee8XRwoUaysmFKz-48" edge="1">
          <mxGeometry width="160" relative="1" as="geometry">
            <mxPoint x="340" y="400" as="sourcePoint" />
            <mxPoint x="376" y="350" as="targetPoint" />
          </mxGeometry>
        </mxCell>
        <mxCell id="tTAMLee8XRwoUaysmFKz-50" value="Use" style="endArrow=open;endSize=12;dashed=1;html=1;" parent="1" source="tTAMLee8XRwoUaysmFKz-48" target="tTAMLee8XRwoUaysmFKz-51" edge="1">
          <mxGeometry width="160" relative="1" as="geometry">
            <mxPoint x="359.9999999999998" y="417.5" as="sourcePoint" />
            <mxPoint x="550" y="418" as="targetPoint" />
          </mxGeometry>
        </mxCell>
        <mxCell id="tTAMLee8XRwoUaysmFKz-51" value="référence l&#39;emprunt" style="ellipse;whiteSpace=wrap;html=1;" parent="1" vertex="1">
          <mxGeometry x="571" y="510" width="70" height="50" as="geometry" />
        </mxCell>
        <mxCell id="tTAMLee8XRwoUaysmFKz-53" value="Use" style="endArrow=open;endSize=12;dashed=1;html=1;exitX=1;exitY=0.5;exitDx=0;exitDy=0;" parent="1" source="tTAMLee8XRwoUaysmFKz-51" target="tTAMLee8XRwoUaysmFKz-46" edge="1">
          <mxGeometry x="-0.0145" y="4" width="160" relative="1" as="geometry">
            <mxPoint x="489.04708598088473" y="442.8994010529316" as="sourcePoint" />
            <mxPoint x="520.477926173832" y="439.1173115572493" as="targetPoint" />
            <Array as="points" />
            <mxPoint as="offset" />
          </mxGeometry>
        </mxCell>
        <mxCell id="tTAMLee8XRwoUaysmFKz-54" value="&lt;span&gt;génération d&#39;une fiche de document&lt;/span&gt;" style="ellipse;whiteSpace=wrap;html=1;" parent="1" vertex="1">
          <mxGeometry x="461" y="50" width="110" height="80" as="geometry" />
        </mxCell>
        <mxCell id="tTAMLee8XRwoUaysmFKz-55" value="Use" style="endArrow=open;endSize=12;dashed=1;html=1;exitX=0.942;exitY=0.233;exitDx=0;exitDy=0;exitPerimeter=0;entryX=0.083;entryY=0.759;entryDx=0;entryDy=0;entryPerimeter=0;" parent="1" source="tTAMLee8XRwoUaysmFKz-30" target="tTAMLee8XRwoUaysmFKz-54" edge="1">
          <mxGeometry width="160" relative="1" as="geometry">
            <mxPoint x="400.004" y="250" as="sourcePoint" />
            <mxPoint x="558.9799999999999" y="272.41999999999996" as="targetPoint" />
          </mxGeometry>
        </mxCell>
        <mxCell id="vOXGq9vIf8X-MH6uhO4Y-2" value="" style="endArrow=classic;html=1;entryX=0.5;entryY=0;entryDx=0;entryDy=0;entryPerimeter=0;" parent="1" source="tTAMLee8XRwoUaysmFKz-2" target="tTAMLee8XRwoUaysmFKz-5" edge="1">
          <mxGeometry width="50" height="50" relative="1" as="geometry">
            <mxPoint x="60" y="450" as="sourcePoint" />
            <mxPoint x="50" y="470" as="targetPoint" />
          </mxGeometry>
        </mxCell>
        <mxCell id="vOXGq9vIf8X-MH6uhO4Y-3" value="" style="endArrow=classic;html=1;exitX=0.5;exitY=0;exitDx=0;exitDy=0;exitPerimeter=0;" parent="1" source="tTAMLee8XRwoUaysmFKz-2" target="tTAMLee8XRwoUaysmFKz-1" edge="1">
          <mxGeometry width="50" height="50" relative="1" as="geometry">
            <mxPoint x="86" y="260" as="sourcePoint" />
            <mxPoint x="95" y="500" as="targetPoint" />
          </mxGeometry>
        </mxCell>
        <mxCell id="vOXGq9vIf8X-MH6uhO4Y-5" value="" style="endArrow=classic;html=1;entryX=0;entryY=1;entryDx=0;entryDy=0;entryPerimeter=0;" parent="1" source="tTAMLee8XRwoUaysmFKz-5" target="tTAMLee8XRwoUaysmFKz-1" edge="1">
          <mxGeometry width="50" height="50" relative="1" as="geometry">
            <mxPoint x="440" y="300" as="sourcePoint" />
            <mxPoint x="490" y="250" as="targetPoint" />
            <Array as="points">
              <mxPoint x="20" y="290" />
            </Array>
          </mxGeometry>
        </mxCell>
        <mxCell id="43268eTeBx5R1sIFAeH5-1" value="Consultation document" style="ellipse;whiteSpace=wrap;html=1;" parent="1" vertex="1">
          <mxGeometry x="240" y="210" width="80" height="60" as="geometry" />
        </mxCell>
        <mxCell id="43268eTeBx5R1sIFAeH5-2" value="" style="endArrow=none;html=1;entryX=0.035;entryY=0.69;entryDx=0;entryDy=0;entryPerimeter=0;" parent="1" target="43268eTeBx5R1sIFAeH5-1" edge="1">
          <mxGeometry width="50" height="50" relative="1" as="geometry">
            <mxPoint x="100" y="300" as="sourcePoint" />
            <mxPoint x="440" y="270" as="targetPoint" />
          </mxGeometry>
        </mxCell>
        <mxCell id="43268eTeBx5R1sIFAeH5-4" value="modification fiche détails" style="ellipse;whiteSpace=wrap;html=1;" parent="1" vertex="1">
          <mxGeometry x="420" y="170" width="79" height="60" as="geometry" />
        </mxCell>
        <mxCell id="43268eTeBx5R1sIFAeH5-5" value="Use" style="endArrow=open;endSize=12;dashed=1;html=1;exitX=1;exitY=0.5;exitDx=0;exitDy=0;entryX=0;entryY=0.5;entryDx=0;entryDy=0;" parent="1" source="43268eTeBx5R1sIFAeH5-1" target="43268eTeBx5R1sIFAeH5-4" edge="1">
          <mxGeometry width="160" relative="1" as="geometry">
            <mxPoint x="330" y="290" as="sourcePoint" />
            <mxPoint x="490" y="290" as="targetPoint" />
            <Array as="points">
              <mxPoint x="420" y="200" />
            </Array>
          </mxGeometry>
        </mxCell>
        <mxCell id="43268eTeBx5R1sIFAeH5-6" value="Extends" style="endArrow=block;endSize=16;endFill=0;html=1;entryX=0;entryY=0.5;entryDx=0;entryDy=0;exitX=1;exitY=0.5;exitDx=0;exitDy=0;" parent="1" source="43268eTeBx5R1sIFAeH5-4" target="tTAMLee8XRwoUaysmFKz-39" edge="1">
          <mxGeometry width="160" relative="1" as="geometry">
            <mxPoint x="330" y="280" as="sourcePoint" />
            <mxPoint x="490" y="280" as="targetPoint" />
          </mxGeometry>
        </mxCell>
      </root>
    </mxGraphModel>
  </diagram>
  <diagram id="v3WPOlAJ3xVx9pNfRn66" name="Diagramme de séquence Principal">
    <mxGraphModel dx="1038" dy="1744" grid="1" gridSize="10" guides="1" tooltips="1" connect="1" arrows="1" fold="1" page="1" pageScale="1" pageWidth="827" pageHeight="1169" math="0" shadow="0">
      <root>
        <mxCell id="GlQX0pFQhknWbbPHTH7Q-0" />
        <mxCell id="GlQX0pFQhknWbbPHTH7Q-1" parent="GlQX0pFQhknWbbPHTH7Q-0" />
        <mxCell id="bUBpOC_PlqEB5t6OJXn0-22" value="&lt;b&gt;&lt;font style=&quot;font-size: 20px&quot;&gt;Scénario bénévole emprunt Micro-film&lt;/font&gt;&lt;/b&gt;" style="text;html=1;align=center;verticalAlign=middle;resizable=0;points=[];autosize=1;" parent="GlQX0pFQhknWbbPHTH7Q-1" vertex="1">
          <mxGeometry x="214" y="1220" width="380" height="20" as="geometry" />
        </mxCell>
        <mxCell id="qPRNqYeVILFpgMmMuYbi-0" value="" style="shape=umlLifeline;participant=umlActor;perimeter=lifelinePerimeter;whiteSpace=wrap;html=1;container=1;collapsible=0;recursiveResize=0;verticalAlign=top;spacingTop=36;outlineConnect=0;" parent="GlQX0pFQhknWbbPHTH7Q-1" vertex="1">
          <mxGeometry x="90" y="1250" width="20" height="720" as="geometry" />
        </mxCell>
        <mxCell id="qPRNqYeVILFpgMmMuYbi-1" value="" style="shape=umlLifeline;participant=umlEntity;perimeter=lifelinePerimeter;whiteSpace=wrap;html=1;container=1;collapsible=0;recursiveResize=0;verticalAlign=top;spacingTop=36;outlineConnect=0;" parent="GlQX0pFQhknWbbPHTH7Q-1" vertex="1">
          <mxGeometry x="720" y="1250" width="40" height="720" as="geometry" />
        </mxCell>
        <mxCell id="qPRNqYeVILFpgMmMuYbi-2" value="" style="html=1;verticalAlign=bottom;endArrow=block;" parent="qPRNqYeVILFpgMmMuYbi-1" source="qPRNqYeVILFpgMmMuYbi-0" edge="1">
          <mxGeometry width="80" relative="1" as="geometry">
            <mxPoint x="-310" y="160" as="sourcePoint" />
            <mxPoint x="20" y="160" as="targetPoint" />
            <Array as="points">
              <mxPoint x="-129.5" y="160" />
            </Array>
          </mxGeometry>
        </mxCell>
        <mxCell id="qPRNqYeVILFpgMmMuYbi-3" value="&lt;font style=&quot;font-size: 12px&quot;&gt;5.1 L&#39;employé clique sur Mise en circulation&lt;/font&gt;" style="html=1;verticalAlign=bottom;endArrow=block;" parent="GlQX0pFQhknWbbPHTH7Q-1" source="qPRNqYeVILFpgMmMuYbi-0" target="qPRNqYeVILFpgMmMuYbi-1" edge="1">
          <mxGeometry width="80" relative="1" as="geometry">
            <mxPoint x="100" y="1310" as="sourcePoint" />
            <mxPoint x="180" y="1310" as="targetPoint" />
            <Array as="points">
              <mxPoint x="280" y="1330" />
            </Array>
          </mxGeometry>
        </mxCell>
        <mxCell id="qPRNqYeVILFpgMmMuYbi-4" value="" style="html=1;verticalAlign=bottom;endArrow=oval;endFill=1;startArrow=block;startFill=1;" parent="GlQX0pFQhknWbbPHTH7Q-1" target="qPRNqYeVILFpgMmMuYbi-1" edge="1">
          <mxGeometry width="80" relative="1" as="geometry">
            <mxPoint x="100" y="1370" as="sourcePoint" />
            <mxPoint x="440" y="1370" as="targetPoint" />
            <Array as="points">
              <mxPoint x="280.5" y="1370" />
            </Array>
          </mxGeometry>
        </mxCell>
        <mxCell id="Kdr-5v6P0D8GCwmmiRnU-65" value="&lt;font style=&quot;font-size: 12px&quot;&gt;5.2 Le système demande l&#39;identification du lecteur&lt;/font&gt;" style="edgeLabel;html=1;align=center;verticalAlign=middle;resizable=0;points=[];" parent="qPRNqYeVILFpgMmMuYbi-4" connectable="0" vertex="1">
          <mxGeometry x="-0.0275" y="2" relative="1" as="geometry">
            <mxPoint y="-8" as="offset" />
          </mxGeometry>
        </mxCell>
        <mxCell id="qPRNqYeVILFpgMmMuYbi-5" value="" style="html=1;verticalAlign=bottom;endArrow=oval;endFill=1;startArrow=block;startFill=1;" parent="GlQX0pFQhknWbbPHTH7Q-1" source="qPRNqYeVILFpgMmMuYbi-0" target="qPRNqYeVILFpgMmMuYbi-1" edge="1">
          <mxGeometry width="80" relative="1" as="geometry">
            <mxPoint x="210" y="1450" as="sourcePoint" />
            <mxPoint x="550" y="1450" as="targetPoint" />
            <Array as="points">
              <mxPoint x="390.5" y="1450" />
            </Array>
          </mxGeometry>
        </mxCell>
        <mxCell id="qPRNqYeVILFpgMmMuYbi-6" value="" style="html=1;verticalAlign=bottom;endArrow=block;" parent="GlQX0pFQhknWbbPHTH7Q-1" target="qPRNqYeVILFpgMmMuYbi-1" edge="1">
          <mxGeometry x="-0.0211" width="80" relative="1" as="geometry">
            <mxPoint x="100" y="1490" as="sourcePoint" />
            <mxPoint x="440" y="1490" as="targetPoint" />
            <Array as="points">
              <mxPoint x="280.5" y="1490" />
            </Array>
            <mxPoint as="offset" />
          </mxGeometry>
        </mxCell>
        <mxCell id="qPRNqYeVILFpgMmMuYbi-7" value="" style="html=1;verticalAlign=bottom;endArrow=oval;endFill=1;startArrow=block;startFill=1;" parent="GlQX0pFQhknWbbPHTH7Q-1" source="qPRNqYeVILFpgMmMuYbi-0" target="qPRNqYeVILFpgMmMuYbi-1" edge="1">
          <mxGeometry x="-0.0211" width="80" relative="1" as="geometry">
            <mxPoint x="240" y="1530" as="sourcePoint" />
            <mxPoint x="689.5" y="1530" as="targetPoint" />
            <Array as="points">
              <mxPoint x="420.5" y="1530" />
            </Array>
            <mxPoint as="offset" />
          </mxGeometry>
        </mxCell>
        <mxCell id="qPRNqYeVILFpgMmMuYbi-8" value="" style="html=1;verticalAlign=bottom;endArrow=block;" parent="GlQX0pFQhknWbbPHTH7Q-1" target="qPRNqYeVILFpgMmMuYbi-1" edge="1">
          <mxGeometry x="-0.0211" width="80" relative="1" as="geometry">
            <mxPoint x="100" y="1570" as="sourcePoint" />
            <mxPoint x="549.5" y="1570" as="targetPoint" />
            <Array as="points">
              <mxPoint x="280.5" y="1570" />
            </Array>
            <mxPoint as="offset" />
          </mxGeometry>
        </mxCell>
        <mxCell id="qPRNqYeVILFpgMmMuYbi-9" value="" style="html=1;verticalAlign=bottom;endArrow=oval;startArrow=block;startFill=1;endFill=1;" parent="GlQX0pFQhknWbbPHTH7Q-1" target="qPRNqYeVILFpgMmMuYbi-1" edge="1">
          <mxGeometry x="-0.0211" width="80" relative="1" as="geometry">
            <mxPoint x="100" y="1610" as="sourcePoint" />
            <mxPoint x="733.5" y="1610" as="targetPoint" />
            <Array as="points">
              <mxPoint x="274.5" y="1610" />
            </Array>
            <mxPoint as="offset" />
          </mxGeometry>
        </mxCell>
        <mxCell id="qPRNqYeVILFpgMmMuYbi-10" value="" style="html=1;verticalAlign=bottom;endArrow=block;startArrow=oval;startFill=1;endFill=1;" parent="GlQX0pFQhknWbbPHTH7Q-1" edge="1">
          <mxGeometry x="-0.0211" width="80" relative="1" as="geometry">
            <mxPoint x="100" y="1650" as="sourcePoint" />
            <mxPoint x="739.5" y="1650" as="targetPoint" />
            <Array as="points">
              <mxPoint x="274.5" y="1650" />
            </Array>
            <mxPoint as="offset" />
          </mxGeometry>
        </mxCell>
        <mxCell id="qPRNqYeVILFpgMmMuYbi-11" value="" style="html=1;verticalAlign=bottom;endArrow=oval;startArrow=block;startFill=1;endFill=1;" parent="GlQX0pFQhknWbbPHTH7Q-1" edge="1">
          <mxGeometry x="0.0907" y="10" width="80" relative="1" as="geometry">
            <mxPoint x="100" y="1690" as="sourcePoint" />
            <mxPoint x="739.5" y="1690" as="targetPoint" />
            <Array as="points">
              <mxPoint x="274.5" y="1690" />
            </Array>
            <mxPoint as="offset" />
          </mxGeometry>
        </mxCell>
        <mxCell id="qPRNqYeVILFpgMmMuYbi-12" value="" style="html=1;verticalAlign=bottom;endArrow=block;startArrow=oval;startFill=1;endFill=1;" parent="GlQX0pFQhknWbbPHTH7Q-1" edge="1">
          <mxGeometry x="-0.0211" width="80" relative="1" as="geometry">
            <mxPoint x="100" y="1730" as="sourcePoint" />
            <mxPoint x="739.5" y="1730" as="targetPoint" />
            <Array as="points">
              <mxPoint x="274.5" y="1730" />
            </Array>
            <mxPoint as="offset" />
          </mxGeometry>
        </mxCell>
        <mxCell id="qPRNqYeVILFpgMmMuYbi-13" value="" style="html=1;verticalAlign=bottom;endArrow=oval;startArrow=block;startFill=1;endFill=1;" parent="GlQX0pFQhknWbbPHTH7Q-1" edge="1">
          <mxGeometry x="-0.0211" width="80" relative="1" as="geometry">
            <mxPoint x="100" y="1769" as="sourcePoint" />
            <mxPoint x="739.5" y="1769" as="targetPoint" />
            <Array as="points">
              <mxPoint x="274.5" y="1769" />
            </Array>
            <mxPoint as="offset" />
          </mxGeometry>
        </mxCell>
        <mxCell id="qPRNqYeVILFpgMmMuYbi-15" value="" style="shape=umlLifeline;participant=umlActor;perimeter=lifelinePerimeter;whiteSpace=wrap;html=1;container=1;collapsible=0;recursiveResize=0;verticalAlign=top;spacingTop=36;outlineConnect=0;" parent="GlQX0pFQhknWbbPHTH7Q-1" vertex="1">
          <mxGeometry x="895" y="-1090" width="20" height="720" as="geometry" />
        </mxCell>
        <mxCell id="tvxgqEs9MfMGWy-wxl0P-0" value="" style="shape=umlLifeline;participant=umlActor;perimeter=lifelinePerimeter;whiteSpace=wrap;html=1;container=1;collapsible=0;recursiveResize=0;verticalAlign=top;spacingTop=36;outlineConnect=0;" parent="GlQX0pFQhknWbbPHTH7Q-1" vertex="1">
          <mxGeometry x="160" y="-1070" width="20" height="760" as="geometry" />
        </mxCell>
        <mxCell id="tvxgqEs9MfMGWy-wxl0P-1" value="&lt;span id=&quot;docs-internal-guid-992f74c0-7fff-04c2-de6b-09e0475871fd&quot;&gt;&lt;span style=&quot;font-family: &amp;#34;arial&amp;#34; ; background-color: transparent ; vertical-align: baseline&quot;&gt;&lt;font style=&quot;font-size: 12px&quot;&gt;1.Le système affiche les différentes sessions&lt;/font&gt;&lt;/span&gt;&lt;/span&gt;" style="html=1;verticalAlign=bottom;startArrow=block;startFill=1;endArrow=oval;startSize=8;endFill=1;" parent="GlQX0pFQhknWbbPHTH7Q-1" edge="1">
          <mxGeometry width="60" relative="1" as="geometry">
            <mxPoint x="170.25" y="-1000" as="sourcePoint" />
            <mxPoint x="619.7499999999995" y="-1000" as="targetPoint" />
          </mxGeometry>
        </mxCell>
        <mxCell id="tvxgqEs9MfMGWy-wxl0P-2" value="&lt;font style=&quot;font-size: 12px&quot;&gt;&lt;span id=&quot;docs-internal-guid-992f74c0-7fff-04c2-de6b-09e0475871fd&quot;&gt;&lt;span style=&quot;font-family: &amp;#34;arial&amp;#34; ; background-color: transparent ; vertical-align: baseline&quot;&gt;&lt;font style=&quot;font-size: 12px&quot;&gt;2.&amp;nbsp;&lt;/font&gt;&lt;/span&gt;&lt;/span&gt;&lt;span id=&quot;docs-internal-guid-6edd00bd-7fff-73c5-1e49-cd8223f9ebea&quot;&gt;&lt;span style=&quot;font-family: &amp;#34;arial&amp;#34; ; background-color: transparent ; vertical-align: baseline&quot;&gt;L’employé s’identifie&lt;/span&gt;&lt;/span&gt;&lt;/font&gt;" style="html=1;verticalAlign=bottom;startArrow=oval;startFill=1;endArrow=block;startSize=8;endFill=1;" parent="GlQX0pFQhknWbbPHTH7Q-1" edge="1">
          <mxGeometry width="60" relative="1" as="geometry">
            <mxPoint x="170.25" y="-960" as="sourcePoint" />
            <mxPoint x="619.7499999999995" y="-960" as="targetPoint" />
          </mxGeometry>
        </mxCell>
        <mxCell id="tvxgqEs9MfMGWy-wxl0P-3" value="&lt;font style=&quot;font-size: 12px&quot;&gt;&lt;span id=&quot;docs-internal-guid-992f74c0-7fff-04c2-de6b-09e0475871fd&quot;&gt;&lt;span style=&quot;font-family: &amp;#34;arial&amp;#34; ; background-color: transparent ; vertical-align: baseline&quot;&gt;&lt;font style=&quot;font-size: 12px&quot;&gt;3.&lt;/font&gt;&lt;/span&gt;&lt;/span&gt;&lt;span id=&quot;docs-internal-guid-c0f9ffd7-7fff-b96e-b4cd-628fd6f0343c&quot;&gt;&lt;span style=&quot;font-family: &amp;#34;arial&amp;#34; ; background-color: transparent ; vertical-align: baseline&quot;&gt;Le système affiche les catégories d’action &lt;i&gt;Gestion des prêts&lt;/i&gt;, &lt;i&gt;Inscription &lt;/i&gt;et &lt;i&gt;Achat&lt;/i&gt;&lt;/span&gt;&lt;/span&gt;&lt;/font&gt;" style="html=1;verticalAlign=bottom;startArrow=block;startFill=1;endArrow=oval;startSize=8;endFill=1;" parent="GlQX0pFQhknWbbPHTH7Q-1" edge="1">
          <mxGeometry width="60" relative="1" as="geometry">
            <mxPoint x="170.25" y="-920" as="sourcePoint" />
            <mxPoint x="619.7499999999995" y="-920" as="targetPoint" />
          </mxGeometry>
        </mxCell>
        <mxCell id="tvxgqEs9MfMGWy-wxl0P-4" value="&lt;font style=&quot;font-size: 12px&quot;&gt;&lt;font face=&quot;arial&quot; style=&quot;font-size: 12px&quot;&gt;4.&amp;nbsp;&lt;/font&gt;&lt;span id=&quot;docs-internal-guid-86acf3bc-7fff-1bdf-f4a9-11212986fbc9&quot;&gt;&lt;span style=&quot;font-family: &amp;#34;arial&amp;#34; ; background-color: transparent ; vertical-align: baseline&quot;&gt;L’employé clique sur &lt;i&gt;Gestion des prêts&lt;/i&gt;&lt;/span&gt;&lt;/span&gt;&lt;/font&gt;" style="html=1;verticalAlign=bottom;startArrow=oval;startFill=1;endArrow=block;startSize=8;endFill=1;" parent="GlQX0pFQhknWbbPHTH7Q-1" edge="1">
          <mxGeometry width="60" relative="1" as="geometry">
            <mxPoint x="170.25" y="-880" as="sourcePoint" />
            <mxPoint x="619.7499999999995" y="-880" as="targetPoint" />
          </mxGeometry>
        </mxCell>
        <mxCell id="tvxgqEs9MfMGWy-wxl0P-5" value="&lt;font style=&quot;font-size: 12px&quot;&gt;&lt;font face=&quot;arial&quot; style=&quot;font-size: 12px&quot;&gt;5.&lt;/font&gt;&lt;span id=&quot;docs-internal-guid-f85a1df9-7fff-b45e-b540-777b08998a4f&quot;&gt;&lt;span style=&quot;font-family: &amp;#34;arial&amp;#34; ; background-color: transparent ; vertical-align: baseline&quot;&gt;Le système affiche les catégories d’action &lt;i&gt;Mise en circulation&lt;/i&gt; ou &lt;i&gt;Emprunt à la maison&lt;/i&gt;&lt;/span&gt;&lt;/span&gt;&lt;/font&gt;" style="html=1;verticalAlign=bottom;startArrow=block;startFill=1;endArrow=oval;startSize=8;endFill=1;" parent="GlQX0pFQhknWbbPHTH7Q-1" edge="1">
          <mxGeometry width="60" relative="1" as="geometry">
            <mxPoint x="170.25" y="-840" as="sourcePoint" />
            <mxPoint x="619.7499999999995" y="-840" as="targetPoint" />
          </mxGeometry>
        </mxCell>
        <mxCell id="tvxgqEs9MfMGWy-wxl0P-6" value="&lt;font style=&quot;font-size: 12px&quot;&gt;&lt;font face=&quot;Arial&quot; style=&quot;font-size: 12px&quot;&gt;6.&amp;nbsp;&lt;/font&gt;&lt;span id=&quot;docs-internal-guid-1bf13ebc-7fff-d4fb-e9bf-19c11ac4b494&quot;&gt;&lt;span style=&quot;font-family: &amp;#34;arial&amp;#34; ; background-color: transparent ; vertical-align: baseline&quot;&gt;L’employé clique sur &lt;i&gt;Emprunt à la maison&lt;/i&gt;&lt;/span&gt;&lt;/span&gt;&lt;/font&gt;" style="html=1;verticalAlign=bottom;startArrow=oval;startFill=1;endArrow=block;startSize=8;endFill=1;" parent="GlQX0pFQhknWbbPHTH7Q-1" edge="1">
          <mxGeometry width="60" relative="1" as="geometry">
            <mxPoint x="170" y="-800" as="sourcePoint" />
            <mxPoint x="619.4999999999995" y="-800" as="targetPoint" />
          </mxGeometry>
        </mxCell>
        <mxCell id="tvxgqEs9MfMGWy-wxl0P-7" value="&lt;font style=&quot;font-size: 12px&quot;&gt;&lt;font face=&quot;arial&quot; style=&quot;font-size: 12px&quot;&gt;7.&amp;nbsp;&lt;/font&gt;&lt;span id=&quot;docs-internal-guid-f596703c-7fff-487d-1735-fc5a6c8a56e6&quot;&gt;&lt;span style=&quot;font-family: &amp;#34;arial&amp;#34; ; background-color: transparent ; vertical-align: baseline&quot;&gt;Le système demande l’identification du lecteur&lt;/span&gt;&lt;/span&gt;&lt;/font&gt;" style="html=1;verticalAlign=bottom;startArrow=block;startFill=1;endArrow=oval;startSize=8;endFill=1;" parent="GlQX0pFQhknWbbPHTH7Q-1" edge="1">
          <mxGeometry width="60" relative="1" as="geometry">
            <mxPoint x="170.25" y="-755" as="sourcePoint" />
            <mxPoint x="619.7499999999995" y="-755" as="targetPoint" />
          </mxGeometry>
        </mxCell>
        <mxCell id="tvxgqEs9MfMGWy-wxl0P-8" value="&lt;font style=&quot;font-size: 12px&quot;&gt;&lt;font face=&quot;Arial&quot; style=&quot;font-size: 12px&quot;&gt;8.&amp;nbsp;&lt;/font&gt;&lt;span id=&quot;docs-internal-guid-5e4b50f0-7fff-a9da-eda5-9019ac884c7c&quot;&gt;&lt;span style=&quot;font-family: &amp;#34;arial&amp;#34; ; background-color: transparent ; vertical-align: baseline&quot;&gt;L’employé entre le numéro de la carte/passe la carte dans le lecteur&lt;/span&gt;&lt;/span&gt;&lt;/font&gt;" style="html=1;verticalAlign=bottom;startArrow=oval;startFill=1;endArrow=block;startSize=8;endFill=1;" parent="GlQX0pFQhknWbbPHTH7Q-1" edge="1">
          <mxGeometry width="60" relative="1" as="geometry">
            <mxPoint x="170" y="-710" as="sourcePoint" />
            <mxPoint x="619.4999999999995" y="-710" as="targetPoint" />
          </mxGeometry>
        </mxCell>
        <mxCell id="tvxgqEs9MfMGWy-wxl0P-9" value="&lt;font style=&quot;font-size: 12px&quot;&gt;&lt;font face=&quot;arial&quot; style=&quot;font-size: 12px&quot;&gt;9.&amp;nbsp;&lt;/font&gt;&lt;span id=&quot;docs-internal-guid-1b132ede-7fff-fdbe-babb-f5910f2a8a55&quot;&gt;&lt;span style=&quot;font-family: &amp;#34;arial&amp;#34; ; background-color: transparent ; vertical-align: baseline&quot;&gt;Le système affiche l’état lecteur, vérifie les modalités d’emprunt&lt;/span&gt;&lt;/span&gt;&lt;/font&gt;" style="html=1;verticalAlign=bottom;startArrow=block;startFill=1;endArrow=oval;startSize=8;endFill=1;" parent="GlQX0pFQhknWbbPHTH7Q-1" edge="1">
          <mxGeometry width="60" relative="1" as="geometry">
            <mxPoint x="170.25" y="-670" as="sourcePoint" />
            <mxPoint x="619.7499999999995" y="-670" as="targetPoint" />
          </mxGeometry>
        </mxCell>
        <mxCell id="tvxgqEs9MfMGWy-wxl0P-10" value="&lt;font style=&quot;font-size: 12px&quot;&gt;&lt;font face=&quot;Arial&quot; style=&quot;font-size: 12px&quot;&gt;10.&amp;nbsp;&lt;/font&gt;&lt;span id=&quot;docs-internal-guid-b9f48221-7fff-672d-b216-a7dd5942c331&quot;&gt;&lt;span style=&quot;font-family: &amp;#34;arial&amp;#34; ; background-color: transparent ; vertical-align: baseline&quot;&gt;L’employé scanne le premier document&lt;/span&gt;&lt;/span&gt;&lt;/font&gt;" style="html=1;verticalAlign=bottom;startArrow=oval;startFill=1;endArrow=block;startSize=8;endFill=1;" parent="GlQX0pFQhknWbbPHTH7Q-1" edge="1">
          <mxGeometry width="60" relative="1" as="geometry">
            <mxPoint x="170" y="-630" as="sourcePoint" />
            <mxPoint x="619.4999999999995" y="-630" as="targetPoint" />
          </mxGeometry>
        </mxCell>
        <mxCell id="tvxgqEs9MfMGWy-wxl0P-11" value="&lt;font style=&quot;font-size: 12px&quot;&gt;&lt;font face=&quot;arial&quot; style=&quot;font-size: 12px&quot;&gt;11.&amp;nbsp;&lt;/font&gt;&lt;span id=&quot;docs-internal-guid-9e4947c4-7fff-b66e-b694-19ded293bfbe&quot;&gt;&lt;span style=&quot;font-family: &amp;#34;arial&amp;#34; ; background-color: transparent ; vertical-align: baseline&quot;&gt;Le système affiche et remplit un formulaire de référencement d’emprunt&lt;/span&gt;&lt;/span&gt;&lt;/font&gt;" style="html=1;verticalAlign=bottom;startArrow=block;startFill=1;endArrow=oval;startSize=8;endFill=1;" parent="GlQX0pFQhknWbbPHTH7Q-1" edge="1">
          <mxGeometry width="60" relative="1" as="geometry">
            <mxPoint x="170.25" y="-590" as="sourcePoint" />
            <mxPoint x="619.7499999999995" y="-590" as="targetPoint" />
          </mxGeometry>
        </mxCell>
        <mxCell id="tvxgqEs9MfMGWy-wxl0P-12" value="&lt;font style=&quot;font-size: 12px&quot;&gt;&lt;font face=&quot;Arial&quot; style=&quot;font-size: 12px&quot;&gt;12.&amp;nbsp;&lt;/font&gt;&lt;span id=&quot;docs-internal-guid-f48ffa1d-7fff-fe4f-d714-8ff5f190ce38&quot;&gt;&lt;span style=&quot;font-family: &amp;#34;arial&amp;#34; ; background-color: transparent ; vertical-align: baseline&quot;&gt;L’employé valide la fin de la fiche d’emprunt&lt;/span&gt;&lt;/span&gt;&lt;/font&gt;" style="html=1;verticalAlign=bottom;startArrow=oval;startFill=1;endArrow=block;startSize=8;endFill=1;" parent="GlQX0pFQhknWbbPHTH7Q-1" edge="1">
          <mxGeometry width="60" relative="1" as="geometry">
            <mxPoint x="170" y="-550" as="sourcePoint" />
            <mxPoint x="619.4999999999995" y="-550" as="targetPoint" />
          </mxGeometry>
        </mxCell>
        <mxCell id="tvxgqEs9MfMGWy-wxl0P-13" value="&lt;font style=&quot;font-size: 12px&quot;&gt;&lt;font face=&quot;arial&quot; style=&quot;font-size: 12px&quot;&gt;13.&amp;nbsp;&lt;/font&gt;&lt;span id=&quot;docs-internal-guid-e4787a63-7fff-4029-ea12-c4dc76560e0b&quot;&gt;&lt;span style=&quot;font-family: &amp;#34;arial&amp;#34; ; background-color: transparent ; vertical-align: baseline&quot;&gt;Le système met à jour l’état lecteur et génère la fiche de prêt&lt;/span&gt;&lt;/span&gt;&lt;/font&gt;" style="html=1;verticalAlign=bottom;startArrow=block;startFill=1;endArrow=oval;startSize=8;endFill=1;" parent="GlQX0pFQhknWbbPHTH7Q-1" edge="1">
          <mxGeometry width="60" relative="1" as="geometry">
            <mxPoint x="170.25" y="-510" as="sourcePoint" />
            <mxPoint x="619.7499999999995" y="-510" as="targetPoint" />
          </mxGeometry>
        </mxCell>
        <mxCell id="tvxgqEs9MfMGWy-wxl0P-14" value="&lt;font style=&quot;font-size: 12px&quot;&gt;&lt;font face=&quot;Arial&quot; style=&quot;font-size: 12px&quot;&gt;14.&amp;nbsp;&lt;/font&gt;&lt;span id=&quot;docs-internal-guid-b18837f7-7fff-8072-3b21-06c5d978ee15&quot;&gt;&lt;span style=&quot;font-family: &amp;#34;arial&amp;#34; ; background-color: transparent ; vertical-align: baseline&quot;&gt;L’employé imprime la fiche ou l&#39;envoie par mail&amp;nbsp; &amp;nbsp;&lt;/span&gt;&lt;/span&gt;&lt;/font&gt;" style="html=1;verticalAlign=bottom;startArrow=oval;startFill=1;endArrow=block;startSize=8;endFill=1;" parent="GlQX0pFQhknWbbPHTH7Q-1" edge="1">
          <mxGeometry width="60" relative="1" as="geometry">
            <mxPoint x="170" y="-470" as="sourcePoint" />
            <mxPoint x="619.4999999999995" y="-470" as="targetPoint" />
          </mxGeometry>
        </mxCell>
        <mxCell id="XNBBpTSSvLHeopftbFoG-0" value="&lt;b&gt;&lt;font style=&quot;font-size: 20px&quot;&gt;Scénario principal : l&#39;employé/bénévole effectue un emprunt à la maison&lt;/font&gt;&lt;/b&gt;" style="text;html=1;align=center;verticalAlign=middle;resizable=0;points=[];autosize=1;" parent="GlQX0pFQhknWbbPHTH7Q-1" vertex="1">
          <mxGeometry x="50" y="-1110" width="700" height="20" as="geometry" />
        </mxCell>
        <mxCell id="XNBBpTSSvLHeopftbFoG-1" value="" style="shape=umlLifeline;participant=umlEntity;perimeter=lifelinePerimeter;whiteSpace=wrap;html=1;container=1;collapsible=0;recursiveResize=0;verticalAlign=top;spacingTop=36;outlineConnect=0;" parent="GlQX0pFQhknWbbPHTH7Q-1" vertex="1">
          <mxGeometry x="600" y="-1070" width="40" height="780" as="geometry" />
        </mxCell>
        <mxCell id="UsHf9G6kprMbJF8UKCVp-18" value="5.I L&#39;employé clique sur &lt;i&gt;Mise en circulation&lt;/i&gt;" style="html=1;verticalAlign=bottom;endArrow=block;startArrow=oval;startFill=1;" parent="GlQX0pFQhknWbbPHTH7Q-1" edge="1">
          <mxGeometry width="80" relative="1" as="geometry">
            <mxPoint x="904.8214285714284" y="-955" as="sourcePoint" />
            <mxPoint x="1551.25" y="-955" as="targetPoint" />
            <Array as="points">
              <mxPoint x="1291.75" y="-955" />
              <mxPoint x="1402.75" y="-955" />
            </Array>
          </mxGeometry>
        </mxCell>
        <mxCell id="UsHf9G6kprMbJF8UKCVp-20" value="5.III L&#39;employé rentre le numéro de la carte/ passe la carte dans le lecteur" style="html=1;verticalAlign=bottom;endArrow=block;" parent="GlQX0pFQhknWbbPHTH7Q-1" edge="1">
          <mxGeometry width="80" relative="1" as="geometry">
            <mxPoint x="901.6014285714285" y="-875" as="sourcePoint" />
            <mxPoint x="1548.03" y="-875" as="targetPoint" />
            <Array as="points">
              <mxPoint x="988.5300000000001" y="-875" />
              <mxPoint x="1328.53" y="-875" />
            </Array>
          </mxGeometry>
        </mxCell>
        <mxCell id="UsHf9G6kprMbJF8UKCVp-21" value="5.IV Le système affiche l&#39;état du lecteur, vérifie les modalités d&#39;emprunt, et affiche le choix entre CD-ROM ou Micro-FIlm" style="html=1;verticalAlign=bottom;endArrow=oval;endFill=1;startArrow=block;startFill=1;" parent="GlQX0pFQhknWbbPHTH7Q-1" edge="1">
          <mxGeometry width="80" relative="1" as="geometry">
            <mxPoint x="901.6014285714285" y="-835" as="sourcePoint" />
            <mxPoint x="1548.03" y="-835" as="targetPoint" />
            <Array as="points">
              <mxPoint x="988.5300000000001" y="-835" />
              <mxPoint x="1068.53" y="-835" />
              <mxPoint x="1518.53" y="-835" />
            </Array>
          </mxGeometry>
        </mxCell>
        <mxCell id="UsHf9G6kprMbJF8UKCVp-22" value="5.V L&#39;employé clique sur CD-ROM" style="html=1;verticalAlign=bottom;endArrow=oval;endFill=1;startArrow=block;startFill=1;" parent="GlQX0pFQhknWbbPHTH7Q-1" edge="1">
          <mxGeometry width="80" relative="1" as="geometry">
            <mxPoint x="901.6014285714285" y="-795" as="sourcePoint" />
            <mxPoint x="1548.03" y="-795" as="targetPoint" />
            <Array as="points">
              <mxPoint x="1193.03" y="-795" />
              <mxPoint x="1268.53" y="-795" />
              <mxPoint x="1308.53" y="-795" />
            </Array>
          </mxGeometry>
        </mxCell>
        <mxCell id="UsHf9G6kprMbJF8UKCVp-23" value="5.VI Le système affiche un formulaire pour générer le prêt comprenant une barre de recherche" style="html=1;verticalAlign=bottom;endArrow=block;" parent="GlQX0pFQhknWbbPHTH7Q-1" edge="1">
          <mxGeometry x="-0.0211" width="80" relative="1" as="geometry">
            <mxPoint x="902.07" y="-755" as="sourcePoint" />
            <mxPoint x="1547.57" y="-755" as="targetPoint" />
            <Array as="points">
              <mxPoint x="1082.57" y="-755" />
            </Array>
            <mxPoint as="offset" />
          </mxGeometry>
        </mxCell>
        <mxCell id="UsHf9G6kprMbJF8UKCVp-24" value="5.VII L&#39;employé indique le titre souhaité" style="html=1;verticalAlign=bottom;endArrow=oval;endFill=1;startArrow=block;startFill=1;" parent="GlQX0pFQhknWbbPHTH7Q-1" edge="1">
          <mxGeometry x="-0.0211" width="80" relative="1" as="geometry">
            <mxPoint x="901.6014285714285" y="-715" as="sourcePoint" />
            <mxPoint x="1548.03" y="-715" as="targetPoint" />
            <Array as="points">
              <mxPoint x="1223.03" y="-715" />
            </Array>
            <mxPoint as="offset" />
          </mxGeometry>
        </mxCell>
        <mxCell id="UsHf9G6kprMbJF8UKCVp-25" value="5.VII Le système affiche le résultat de la recherche" style="html=1;verticalAlign=bottom;endArrow=block;startArrow=oval;startFill=1;" parent="GlQX0pFQhknWbbPHTH7Q-1" edge="1">
          <mxGeometry x="-0.0211" width="80" relative="1" as="geometry">
            <mxPoint x="902.07" y="-675.5" as="sourcePoint" />
            <mxPoint x="1547.57" y="-675.5" as="targetPoint" />
            <Array as="points">
              <mxPoint x="1082.57" y="-675.5" />
            </Array>
            <mxPoint as="offset" />
          </mxGeometry>
        </mxCell>
        <mxCell id="UsHf9G6kprMbJF8UKCVp-26" value="5.IX L&#39;employé clique sur le résultat" style="html=1;verticalAlign=bottom;endArrow=oval;endFill=1;startArrow=block;startFill=1;" parent="GlQX0pFQhknWbbPHTH7Q-1" source="UsHf9G6kprMbJF8UKCVp-17" edge="1">
          <mxGeometry x="-0.0211" width="80" relative="1" as="geometry">
            <mxPoint x="902.07" y="-635" as="sourcePoint" />
            <mxPoint x="1547.57" y="-635" as="targetPoint" />
            <Array as="points">
              <mxPoint x="1076.57" y="-635" />
            </Array>
            <mxPoint as="offset" />
          </mxGeometry>
        </mxCell>
        <mxCell id="UsHf9G6kprMbJF8UKCVp-27" value="5.X Le système affiche la fiche détails, indiquant la côte et s&#39;il est disponible" style="html=1;verticalAlign=bottom;endArrow=block;startArrow=oval;startFill=1;endFill=1;" parent="GlQX0pFQhknWbbPHTH7Q-1" edge="1">
          <mxGeometry x="-0.0211" width="80" relative="1" as="geometry">
            <mxPoint x="902.07" y="-595" as="sourcePoint" />
            <mxPoint x="1547.57" y="-595" as="targetPoint" />
            <Array as="points">
              <mxPoint x="1076.57" y="-595" />
            </Array>
            <mxPoint as="offset" />
          </mxGeometry>
        </mxCell>
        <mxCell id="UsHf9G6kprMbJF8UKCVp-28" value="5.XI L&#39;employé clique sur &lt;i&gt;Emprun&lt;/i&gt;t" style="html=1;verticalAlign=bottom;endArrow=block;startArrow=oval;startFill=1;endFill=1;" parent="GlQX0pFQhknWbbPHTH7Q-1" edge="1">
          <mxGeometry x="-0.0211" width="80" relative="1" as="geometry">
            <mxPoint x="905.07" y="-555" as="sourcePoint" />
            <mxPoint x="1544.57" y="-555" as="targetPoint" />
            <Array as="points">
              <mxPoint x="1079.57" y="-555" />
            </Array>
            <mxPoint as="offset" />
          </mxGeometry>
        </mxCell>
        <mxCell id="UsHf9G6kprMbJF8UKCVp-29" value="5.XII Le système génère une fiche de prêt avec le numéro lecteur, la côte du document, la date" style="html=1;verticalAlign=bottom;endArrow=oval;startArrow=block;startFill=1;endFill=1;" parent="GlQX0pFQhknWbbPHTH7Q-1" edge="1">
          <mxGeometry x="-0.0211" width="80" relative="1" as="geometry">
            <mxPoint x="905.0699999999998" y="-514.9999999999998" as="sourcePoint" />
            <mxPoint x="1544.57" y="-514.9999999999998" as="targetPoint" />
            <Array as="points">
              <mxPoint x="1079.57" y="-515" />
            </Array>
            <mxPoint as="offset" />
          </mxGeometry>
        </mxCell>
        <mxCell id="Kdr-5v6P0D8GCwmmiRnU-0" value="&lt;font style=&quot;font-size: 20px&quot;&gt;Scénario bénévole/employé emprunt CD-ROM&lt;/font&gt;" style="text;html=1;align=center;verticalAlign=middle;resizable=0;points=[];autosize=1;fontStyle=1;fontSize=19;" parent="GlQX0pFQhknWbbPHTH7Q-1" vertex="1">
          <mxGeometry x="999.82" y="-1110" width="450" height="30" as="geometry" />
        </mxCell>
        <mxCell id="Kdr-5v6P0D8GCwmmiRnU-1" value="5.II&amp;nbsp; Le système demande l&#39;identification du lecteur" style="html=1;verticalAlign=bottom;endArrow=oval;startArrow=block;startFill=1;endFill=1;" parent="GlQX0pFQhknWbbPHTH7Q-1" edge="1">
          <mxGeometry width="80" relative="1" as="geometry">
            <mxPoint x="901.6014285714283" y="-915" as="sourcePoint" />
            <mxPoint x="1548.0300000000002" y="-915" as="targetPoint" />
            <Array as="points">
              <mxPoint x="1288.53" y="-915" />
              <mxPoint x="1399.53" y="-915" />
            </Array>
          </mxGeometry>
        </mxCell>
        <mxCell id="Kdr-5v6P0D8GCwmmiRnU-2" value="" style="shape=umlLifeline;participant=umlActor;perimeter=lifelinePerimeter;whiteSpace=wrap;html=1;container=1;collapsible=0;recursiveResize=0;verticalAlign=top;spacingTop=36;outlineConnect=0;" parent="GlQX0pFQhknWbbPHTH7Q-1" vertex="1">
          <mxGeometry x="110" y="150" width="20" height="440" as="geometry" />
        </mxCell>
        <mxCell id="Kdr-5v6P0D8GCwmmiRnU-5" value="" style="html=1;verticalAlign=bottom;startArrow=block;startFill=1;endArrow=oval;startSize=8;endFill=1;" parent="GlQX0pFQhknWbbPHTH7Q-1" edge="1">
          <mxGeometry x="-0.0222" y="30" width="60" relative="1" as="geometry">
            <mxPoint x="120.5" y="270" as="sourcePoint" />
            <mxPoint x="569.9999999999995" y="270" as="targetPoint" />
            <mxPoint as="offset" />
          </mxGeometry>
        </mxCell>
        <mxCell id="Kdr-5v6P0D8GCwmmiRnU-6" value="" style="html=1;verticalAlign=bottom;startArrow=oval;startFill=1;endArrow=block;startSize=8;endFill=1;" parent="GlQX0pFQhknWbbPHTH7Q-1" edge="1">
          <mxGeometry width="60" relative="1" as="geometry">
            <mxPoint x="120.5" y="310" as="sourcePoint" />
            <mxPoint x="569.9999999999995" y="310" as="targetPoint" />
          </mxGeometry>
        </mxCell>
        <mxCell id="Kdr-5v6P0D8GCwmmiRnU-7" value="" style="html=1;verticalAlign=bottom;startArrow=block;startFill=1;endArrow=oval;startSize=8;endFill=1;" parent="GlQX0pFQhknWbbPHTH7Q-1" edge="1">
          <mxGeometry width="60" relative="1" as="geometry">
            <mxPoint x="120.5" y="350" as="sourcePoint" />
            <mxPoint x="569.9999999999995" y="350" as="targetPoint" />
          </mxGeometry>
        </mxCell>
        <mxCell id="Kdr-5v6P0D8GCwmmiRnU-8" value="" style="html=1;verticalAlign=bottom;startArrow=oval;startFill=1;endArrow=block;startSize=8;endFill=1;" parent="GlQX0pFQhknWbbPHTH7Q-1" edge="1">
          <mxGeometry width="60" relative="1" as="geometry">
            <mxPoint x="120.5" y="390" as="sourcePoint" />
            <mxPoint x="569.9999999999995" y="390" as="targetPoint" />
          </mxGeometry>
        </mxCell>
        <mxCell id="Kdr-5v6P0D8GCwmmiRnU-9" value="" style="html=1;verticalAlign=bottom;startArrow=block;startFill=1;endArrow=oval;startSize=8;endFill=1;" parent="GlQX0pFQhknWbbPHTH7Q-1" edge="1">
          <mxGeometry width="60" relative="1" as="geometry">
            <mxPoint x="120.5" y="430" as="sourcePoint" />
            <mxPoint x="569.9999999999995" y="430" as="targetPoint" />
          </mxGeometry>
        </mxCell>
        <mxCell id="Kdr-5v6P0D8GCwmmiRnU-17" value="" style="shape=umlLifeline;participant=umlEntity;perimeter=lifelinePerimeter;whiteSpace=wrap;html=1;container=1;collapsible=0;recursiveResize=0;verticalAlign=top;spacingTop=36;outlineConnect=0;" parent="GlQX0pFQhknWbbPHTH7Q-1" vertex="1">
          <mxGeometry x="550" y="150" width="40" height="440" as="geometry" />
        </mxCell>
        <mxCell id="Kdr-5v6P0D8GCwmmiRnU-18" value="&lt;span id=&quot;docs-internal-guid-cf138b8a-7fff-b28d-8088-bb54bce1026e&quot;&gt;&lt;span style=&quot;font-family: &amp;#34;arial&amp;#34; ; background-color: transparent ; font-weight: 700 ; vertical-align: baseline&quot;&gt;&lt;font style=&quot;font-size: 20px&quot;&gt;Scénario annexe bénévole/personnel, le lecteur n’a pas de carte&lt;/font&gt;&lt;/span&gt;&lt;/span&gt;" style="text;html=1;align=center;verticalAlign=middle;resizable=0;points=[];autosize=1;" parent="GlQX0pFQhknWbbPHTH7Q-1" vertex="1">
          <mxGeometry x="40" y="110" width="620" height="20" as="geometry" />
        </mxCell>
        <mxCell id="Kdr-5v6P0D8GCwmmiRnU-24" value="" style="shape=umlLifeline;participant=umlActor;perimeter=lifelinePerimeter;whiteSpace=wrap;html=1;container=1;collapsible=0;recursiveResize=0;verticalAlign=top;spacingTop=36;outlineConnect=0;" parent="GlQX0pFQhknWbbPHTH7Q-1" vertex="1">
          <mxGeometry x="138" y="810" width="20" height="280" as="geometry" />
        </mxCell>
        <mxCell id="Kdr-5v6P0D8GCwmmiRnU-26" value="" style="html=1;verticalAlign=bottom;startArrow=block;startFill=1;endArrow=oval;startSize=8;endFill=1;" parent="GlQX0pFQhknWbbPHTH7Q-1" edge="1">
          <mxGeometry x="-0.0222" y="30" width="60" relative="1" as="geometry">
            <mxPoint x="148.5" y="890" as="sourcePoint" />
            <mxPoint x="597.9999999999995" y="890" as="targetPoint" />
            <mxPoint as="offset" />
          </mxGeometry>
        </mxCell>
        <mxCell id="Kdr-5v6P0D8GCwmmiRnU-27" value="" style="html=1;verticalAlign=bottom;startArrow=oval;startFill=1;endArrow=block;startSize=8;endFill=1;" parent="GlQX0pFQhknWbbPHTH7Q-1" edge="1">
          <mxGeometry width="60" relative="1" as="geometry">
            <mxPoint x="153.25" y="930" as="sourcePoint" />
            <mxPoint x="602.7499999999995" y="930" as="targetPoint" />
          </mxGeometry>
        </mxCell>
        <mxCell id="Kdr-5v6P0D8GCwmmiRnU-28" value="" style="html=1;verticalAlign=bottom;startArrow=block;startFill=1;endArrow=oval;startSize=8;endFill=1;" parent="GlQX0pFQhknWbbPHTH7Q-1" edge="1">
          <mxGeometry width="60" relative="1" as="geometry">
            <mxPoint x="148.5" y="970" as="sourcePoint" />
            <mxPoint x="597.9999999999995" y="970" as="targetPoint" />
          </mxGeometry>
        </mxCell>
        <mxCell id="Kdr-5v6P0D8GCwmmiRnU-29" value="" style="html=1;verticalAlign=bottom;startArrow=oval;startFill=1;endArrow=block;startSize=8;endFill=1;" parent="GlQX0pFQhknWbbPHTH7Q-1" edge="1">
          <mxGeometry width="60" relative="1" as="geometry">
            <mxPoint x="153.25" y="1010" as="sourcePoint" />
            <mxPoint x="602.7499999999995" y="1010" as="targetPoint" />
          </mxGeometry>
        </mxCell>
        <mxCell id="Kdr-5v6P0D8GCwmmiRnU-31" value="" style="shape=umlLifeline;participant=umlEntity;perimeter=lifelinePerimeter;whiteSpace=wrap;html=1;container=1;collapsible=0;recursiveResize=0;verticalAlign=top;spacingTop=36;outlineConnect=0;" parent="GlQX0pFQhknWbbPHTH7Q-1" vertex="1">
          <mxGeometry x="578" y="810" width="40" height="280" as="geometry" />
        </mxCell>
        <mxCell id="Kdr-5v6P0D8GCwmmiRnU-32" value="7.1 Le système propose de s&#39;inscrire" style="text;html=1;align=center;verticalAlign=middle;resizable=0;points=[];autosize=1;" parent="GlQX0pFQhknWbbPHTH7Q-1" vertex="1">
          <mxGeometry x="225" y="240" width="210" height="20" as="geometry" />
        </mxCell>
        <mxCell id="Kdr-5v6P0D8GCwmmiRnU-33" value="7.2 l&#39;employé clique sur inscription" style="text;html=1;align=center;verticalAlign=middle;resizable=0;points=[];autosize=1;" parent="GlQX0pFQhknWbbPHTH7Q-1" vertex="1">
          <mxGeometry x="225" y="280" width="200" height="20" as="geometry" />
        </mxCell>
        <mxCell id="Kdr-5v6P0D8GCwmmiRnU-34" value="7.3 Le système renvoie à la partie nouvelle inscripition" style="text;html=1;align=center;verticalAlign=middle;resizable=0;points=[];autosize=1;" parent="GlQX0pFQhknWbbPHTH7Q-1" vertex="1">
          <mxGeometry x="212" y="330" width="300" height="20" as="geometry" />
        </mxCell>
        <mxCell id="Kdr-5v6P0D8GCwmmiRnU-36" value="7.4 L&#39;employé remplit le formulaire d&#39;inscription" style="text;html=1;align=center;verticalAlign=middle;resizable=0;points=[];autosize=1;" parent="GlQX0pFQhknWbbPHTH7Q-1" vertex="1">
          <mxGeometry x="212" y="370" width="270" height="20" as="geometry" />
        </mxCell>
        <mxCell id="Kdr-5v6P0D8GCwmmiRnU-37" value="7.5 Le système enregistre la fiche lecteur et reviens sur la page d&#39;emprunt (10)" style="text;html=1;align=center;verticalAlign=middle;resizable=0;points=[];autosize=1;" parent="GlQX0pFQhknWbbPHTH7Q-1" vertex="1">
          <mxGeometry x="125" y="410" width="430" height="20" as="geometry" />
        </mxCell>
        <mxCell id="Kdr-5v6P0D8GCwmmiRnU-38" value="" style="shape=umlLifeline;participant=umlActor;perimeter=lifelinePerimeter;whiteSpace=wrap;html=1;container=1;collapsible=0;recursiveResize=0;verticalAlign=top;spacingTop=36;outlineConnect=0;" parent="GlQX0pFQhknWbbPHTH7Q-1" vertex="1">
          <mxGeometry x="958" y="175" width="20" height="440" as="geometry" />
        </mxCell>
        <mxCell id="Kdr-5v6P0D8GCwmmiRnU-39" value="" style="html=1;verticalAlign=bottom;startArrow=block;startFill=1;endArrow=oval;startSize=8;endFill=1;" parent="GlQX0pFQhknWbbPHTH7Q-1" edge="1">
          <mxGeometry x="-0.0222" y="30" width="60" relative="1" as="geometry">
            <mxPoint x="968.5" y="295" as="sourcePoint" />
            <mxPoint x="1417.9999999999995" y="295" as="targetPoint" />
            <mxPoint as="offset" />
          </mxGeometry>
        </mxCell>
        <mxCell id="Kdr-5v6P0D8GCwmmiRnU-40" value="" style="html=1;verticalAlign=bottom;startArrow=oval;startFill=1;endArrow=block;startSize=8;endFill=1;" parent="GlQX0pFQhknWbbPHTH7Q-1" edge="1">
          <mxGeometry width="60" relative="1" as="geometry">
            <mxPoint x="968.5" y="335" as="sourcePoint" />
            <mxPoint x="1417.9999999999995" y="335" as="targetPoint" />
          </mxGeometry>
        </mxCell>
        <mxCell id="Kdr-5v6P0D8GCwmmiRnU-41" value="" style="html=1;verticalAlign=bottom;startArrow=block;startFill=1;endArrow=oval;startSize=8;endFill=1;" parent="GlQX0pFQhknWbbPHTH7Q-1" edge="1">
          <mxGeometry width="60" relative="1" as="geometry">
            <mxPoint x="968.5" y="375" as="sourcePoint" />
            <mxPoint x="1417.9999999999995" y="375" as="targetPoint" />
          </mxGeometry>
        </mxCell>
        <mxCell id="Kdr-5v6P0D8GCwmmiRnU-42" value="" style="html=1;verticalAlign=bottom;startArrow=oval;startFill=1;endArrow=block;startSize=8;endFill=1;" parent="GlQX0pFQhknWbbPHTH7Q-1" edge="1">
          <mxGeometry width="60" relative="1" as="geometry">
            <mxPoint x="968.5" y="415" as="sourcePoint" />
            <mxPoint x="1417.9999999999995" y="415" as="targetPoint" />
          </mxGeometry>
        </mxCell>
        <mxCell id="Kdr-5v6P0D8GCwmmiRnU-43" value="" style="html=1;verticalAlign=bottom;startArrow=block;startFill=1;endArrow=oval;startSize=8;endFill=1;" parent="GlQX0pFQhknWbbPHTH7Q-1" edge="1">
          <mxGeometry width="60" relative="1" as="geometry">
            <mxPoint x="968.5" y="455" as="sourcePoint" />
            <mxPoint x="1417.9999999999995" y="455" as="targetPoint" />
          </mxGeometry>
        </mxCell>
        <mxCell id="Kdr-5v6P0D8GCwmmiRnU-44" value="" style="shape=umlLifeline;participant=umlEntity;perimeter=lifelinePerimeter;whiteSpace=wrap;html=1;container=1;collapsible=0;recursiveResize=0;verticalAlign=top;spacingTop=36;outlineConnect=0;" parent="GlQX0pFQhknWbbPHTH7Q-1" vertex="1">
          <mxGeometry x="1398" y="175" width="40" height="440" as="geometry" />
        </mxCell>
        <mxCell id="Kdr-5v6P0D8GCwmmiRnU-45" value="7. I Le système propose un onglet oubli de carte" style="text;html=1;align=center;verticalAlign=middle;resizable=0;points=[];autosize=1;" parent="GlQX0pFQhknWbbPHTH7Q-1" vertex="1">
          <mxGeometry x="1043" y="265" width="270" height="20" as="geometry" />
        </mxCell>
        <mxCell id="Kdr-5v6P0D8GCwmmiRnU-46" value="7.II l&#39;employé clique sur cet onglet" style="text;html=1;align=center;verticalAlign=middle;resizable=0;points=[];autosize=1;" parent="GlQX0pFQhknWbbPHTH7Q-1" vertex="1">
          <mxGeometry x="1073" y="305" width="200" height="20" as="geometry" />
        </mxCell>
        <mxCell id="Kdr-5v6P0D8GCwmmiRnU-47" value="7.III Le système affiche un champ de recherche&amp;nbsp;" style="text;html=1;align=center;verticalAlign=middle;resizable=0;points=[];autosize=1;" parent="GlQX0pFQhknWbbPHTH7Q-1" vertex="1">
          <mxGeometry x="1075" y="355" width="270" height="20" as="geometry" />
        </mxCell>
        <mxCell id="Kdr-5v6P0D8GCwmmiRnU-48" value="7. IV L&#39;employé rentre le nom du lecteur et valide" style="text;html=1;align=center;verticalAlign=middle;resizable=0;points=[];autosize=1;" parent="GlQX0pFQhknWbbPHTH7Q-1" vertex="1">
          <mxGeometry x="1055" y="395" width="280" height="20" as="geometry" />
        </mxCell>
        <mxCell id="Kdr-5v6P0D8GCwmmiRnU-49" value="7.V Le système affiche le résultat" style="text;html=1;align=center;verticalAlign=middle;resizable=0;points=[];autosize=1;" parent="GlQX0pFQhknWbbPHTH7Q-1" vertex="1">
          <mxGeometry x="1093" y="435" width="190" height="20" as="geometry" />
        </mxCell>
        <mxCell id="Kdr-5v6P0D8GCwmmiRnU-50" value="&lt;span id=&quot;docs-internal-guid-01a9ecb7-7fff-152c-589b-3441bbb83132&quot; style=&quot;font-size: 20px&quot;&gt;&lt;p dir=&quot;ltr&quot; style=&quot;line-height: 1.38 ; margin-top: 0pt ; margin-bottom: 0pt&quot;&gt;&lt;span style=&quot;font-family: &amp;#34;arial&amp;#34; ; background-color: transparent ; font-weight: 700 ; vertical-align: baseline&quot;&gt;Scénario annexe bénévole/personnel, le lecteur a oublié sa carte&lt;/span&gt;&lt;/p&gt;&lt;div&gt;&lt;span style=&quot;font-family: &amp;#34;arial&amp;#34; ; color: rgb(255 , 0 , 0) ; background-color: transparent ; font-weight: 700 ; vertical-align: baseline&quot;&gt;&lt;br&gt;&lt;/span&gt;&lt;/div&gt;&lt;/span&gt;" style="text;html=1;align=center;verticalAlign=middle;resizable=0;points=[];autosize=1;" parent="GlQX0pFQhknWbbPHTH7Q-1" vertex="1">
          <mxGeometry x="895" y="110" width="630" height="50" as="geometry" />
        </mxCell>
        <mxCell id="Kdr-5v6P0D8GCwmmiRnU-52" value="" style="html=1;verticalAlign=bottom;startArrow=oval;startFill=1;endArrow=block;startSize=8;endFill=1;" parent="GlQX0pFQhknWbbPHTH7Q-1" edge="1">
          <mxGeometry width="60" relative="1" as="geometry">
            <mxPoint x="970.25" y="495" as="sourcePoint" />
            <mxPoint x="1419.7499999999995" y="495" as="targetPoint" />
          </mxGeometry>
        </mxCell>
        <mxCell id="Kdr-5v6P0D8GCwmmiRnU-53" value="" style="html=1;verticalAlign=bottom;startArrow=block;startFill=1;endArrow=oval;startSize=8;endFill=1;" parent="GlQX0pFQhknWbbPHTH7Q-1" edge="1">
          <mxGeometry width="60" relative="1" as="geometry">
            <mxPoint x="963.25" y="535" as="sourcePoint" />
            <mxPoint x="1412.7499999999995" y="535" as="targetPoint" />
          </mxGeometry>
        </mxCell>
        <mxCell id="Kdr-5v6P0D8GCwmmiRnU-54" value="" style="html=1;verticalAlign=bottom;startArrow=oval;startFill=1;endArrow=block;startSize=8;endFill=1;" parent="GlQX0pFQhknWbbPHTH7Q-1" edge="1">
          <mxGeometry width="60" relative="1" as="geometry">
            <mxPoint x="970.25" y="575" as="sourcePoint" />
            <mxPoint x="1419.7499999999995" y="575" as="targetPoint" />
          </mxGeometry>
        </mxCell>
        <mxCell id="Kdr-5v6P0D8GCwmmiRnU-55" value="" style="html=1;verticalAlign=bottom;startArrow=block;startFill=1;endArrow=oval;startSize=8;endFill=1;" parent="GlQX0pFQhknWbbPHTH7Q-1" edge="1">
          <mxGeometry width="60" relative="1" as="geometry">
            <mxPoint x="963.25" y="614" as="sourcePoint" />
            <mxPoint x="1412.7499999999995" y="614" as="targetPoint" />
          </mxGeometry>
        </mxCell>
        <mxCell id="Kdr-5v6P0D8GCwmmiRnU-56" value="7. VI L&#39;employé rentre dans la fiche lecteur" style="text;html=1;align=center;verticalAlign=middle;resizable=0;points=[];autosize=1;" parent="GlQX0pFQhknWbbPHTH7Q-1" vertex="1">
          <mxGeometry x="1048" y="475" width="240" height="20" as="geometry" />
        </mxCell>
        <mxCell id="Kdr-5v6P0D8GCwmmiRnU-57" value="7.VII Le système affiche la fiche lecteur" style="text;html=1;align=center;verticalAlign=middle;resizable=0;points=[];autosize=1;" parent="GlQX0pFQhknWbbPHTH7Q-1" vertex="1">
          <mxGeometry x="1063" y="515" width="220" height="20" as="geometry" />
        </mxCell>
        <mxCell id="Kdr-5v6P0D8GCwmmiRnU-58" value="7.VIII L&#39;employé clique sur créer un emprunt" style="text;html=1;align=center;verticalAlign=middle;resizable=0;points=[];autosize=1;" parent="GlQX0pFQhknWbbPHTH7Q-1" vertex="1">
          <mxGeometry x="1063" y="555" width="250" height="20" as="geometry" />
        </mxCell>
        <mxCell id="Kdr-5v6P0D8GCwmmiRnU-59" value="7.IX Le système revient sur la page d&#39;emprunt (10)&amp;nbsp;" style="text;html=1;align=center;verticalAlign=middle;resizable=0;points=[];autosize=1;" parent="GlQX0pFQhknWbbPHTH7Q-1" vertex="1">
          <mxGeometry x="1023" y="595" width="290" height="20" as="geometry" />
        </mxCell>
        <mxCell id="Kdr-5v6P0D8GCwmmiRnU-60" value="&lt;span id=&quot;docs-internal-guid-ea29cf29-7fff-f24a-5b55-1023fdf2ce5b&quot; style=&quot;font-size: 20px;&quot;&gt;&lt;p dir=&quot;ltr&quot; style=&quot;line-height: 1.38; margin-top: 0pt; margin-bottom: 0pt; font-size: 20px;&quot;&gt;&lt;span style=&quot;font-size: 20px; font-family: arial; background-color: transparent; font-weight: 700; vertical-align: baseline;&quot;&gt;Scénario annexe bénévole/personnel, le lecteur n’a pas les modalités d’emprunt&lt;/span&gt;&lt;/p&gt;&lt;div style=&quot;font-size: 20px;&quot;&gt;&lt;span style=&quot;font-size: 20px; font-family: arial; color: rgb(255, 0, 0); background-color: transparent; font-weight: 700; vertical-align: baseline;&quot;&gt;&lt;br style=&quot;font-size: 20px;&quot;&gt;&lt;/span&gt;&lt;/div&gt;&lt;/span&gt;" style="text;html=1;align=center;verticalAlign=middle;resizable=0;points=[];autosize=1;fontSize=20;" parent="GlQX0pFQhknWbbPHTH7Q-1" vertex="1">
          <mxGeometry x="10" y="750" width="780" height="60" as="geometry" />
        </mxCell>
        <mxCell id="Kdr-5v6P0D8GCwmmiRnU-61" value="9.1 Le système affiche un message d&#39;erreur" style="text;html=1;align=center;verticalAlign=middle;resizable=0;points=[];autosize=1;" parent="GlQX0pFQhknWbbPHTH7Q-1" vertex="1">
          <mxGeometry x="228" y="860" width="250" height="20" as="geometry" />
        </mxCell>
        <mxCell id="Kdr-5v6P0D8GCwmmiRnU-62" value="9.2 L&#39;employé choisit d&#39;encaisser la caution si le lecteur la met à jour" style="text;html=1;align=center;verticalAlign=middle;resizable=0;points=[];autosize=1;" parent="GlQX0pFQhknWbbPHTH7Q-1" vertex="1">
          <mxGeometry x="173" y="910" width="380" height="20" as="geometry" />
        </mxCell>
        <mxCell id="Kdr-5v6P0D8GCwmmiRnU-63" value="9.3 Le système met à jour la fiche lecteur&amp;nbsp;" style="text;html=1;align=center;verticalAlign=middle;resizable=0;points=[];autosize=1;" parent="GlQX0pFQhknWbbPHTH7Q-1" vertex="1">
          <mxGeometry x="233" y="950" width="240" height="20" as="geometry" />
        </mxCell>
        <mxCell id="Kdr-5v6P0D8GCwmmiRnU-64" value="9.4 L&#39;employé clique sur retour prêt en cours" style="text;html=1;align=center;verticalAlign=middle;resizable=0;points=[];autosize=1;" parent="GlQX0pFQhknWbbPHTH7Q-1" vertex="1">
          <mxGeometry x="238" y="990" width="250" height="20" as="geometry" />
        </mxCell>
        <mxCell id="Kdr-5v6P0D8GCwmmiRnU-66" value="5.3 l&#39;employé rentre le numéro de la carte/passe la carte dans le lecteur" style="text;html=1;align=center;verticalAlign=middle;resizable=0;points=[];autosize=1;" parent="GlQX0pFQhknWbbPHTH7Q-1" vertex="1">
          <mxGeometry x="204" y="1384" width="400" height="20" as="geometry" />
        </mxCell>
        <mxCell id="Kdr-5v6P0D8GCwmmiRnU-67" value="5.4 Le système affiche l&#39;état du lecteur, vérifie les modalités d&#39;emprunt, et affiche le choix entre CD-ROM ou Micro-Film" style="text;html=1;align=center;verticalAlign=middle;resizable=0;points=[];autosize=1;" parent="GlQX0pFQhknWbbPHTH7Q-1" vertex="1">
          <mxGeometry x="98.75" y="1430" width="650" height="20" as="geometry" />
        </mxCell>
        <mxCell id="Kdr-5v6P0D8GCwmmiRnU-68" value="5.5 L&#39;employé clique sur Micro-film" style="text;html=1;align=center;verticalAlign=middle;resizable=0;points=[];autosize=1;" parent="GlQX0pFQhknWbbPHTH7Q-1" vertex="1">
          <mxGeometry x="304" y="1470" width="200" height="20" as="geometry" />
        </mxCell>
        <mxCell id="Kdr-5v6P0D8GCwmmiRnU-69" value="5.6 Le système vérifie si un écran est livre et indique le numéro de poste" style="text;html=1;align=center;verticalAlign=middle;resizable=0;points=[];autosize=1;" parent="GlQX0pFQhknWbbPHTH7Q-1" vertex="1">
          <mxGeometry x="168.75" y="1510" width="400" height="20" as="geometry" />
        </mxCell>
        <mxCell id="Kdr-5v6P0D8GCwmmiRnU-70" value="5.7 L&#39;employé sélectionne un poste" style="text;html=1;align=center;verticalAlign=middle;resizable=0;points=[];autosize=1;" parent="GlQX0pFQhknWbbPHTH7Q-1" vertex="1">
          <mxGeometry x="303.75" y="1550" width="200" height="20" as="geometry" />
        </mxCell>
        <mxCell id="Kdr-5v6P0D8GCwmmiRnU-71" value="5.8 Le système affiche un formulaire pour générer le prêt comprenant une barre de recherche" style="text;html=1;align=center;verticalAlign=middle;resizable=0;points=[];autosize=1;" parent="GlQX0pFQhknWbbPHTH7Q-1" vertex="1">
          <mxGeometry x="148.75" y="1590" width="510" height="20" as="geometry" />
        </mxCell>
        <mxCell id="Kdr-5v6P0D8GCwmmiRnU-72" value="5.9 L&#39;employé indique le titre souhaité" style="text;html=1;align=center;verticalAlign=middle;resizable=0;points=[];autosize=1;" parent="GlQX0pFQhknWbbPHTH7Q-1" vertex="1">
          <mxGeometry x="288.75" y="1630" width="220" height="20" as="geometry" />
        </mxCell>
        <mxCell id="Kdr-5v6P0D8GCwmmiRnU-73" value="5.10 Le système affiche le résultat de recherche" style="text;html=1;align=center;verticalAlign=middle;resizable=0;points=[];autosize=1;" parent="GlQX0pFQhknWbbPHTH7Q-1" vertex="1">
          <mxGeometry x="258.75" y="1670" width="270" height="20" as="geometry" />
        </mxCell>
        <mxCell id="Kdr-5v6P0D8GCwmmiRnU-74" value="5.11 L&#39;employé clique sur le résultat" style="text;html=1;align=center;verticalAlign=middle;resizable=0;points=[];autosize=1;" parent="GlQX0pFQhknWbbPHTH7Q-1" vertex="1">
          <mxGeometry x="303.75" y="1710" width="210" height="20" as="geometry" />
        </mxCell>
        <mxCell id="Kdr-5v6P0D8GCwmmiRnU-75" value="5.12 Le système affiche la fiche détails, indiquant la côte et si il est disponible" style="text;html=1;align=center;verticalAlign=middle;resizable=0;points=[];autosize=1;" parent="GlQX0pFQhknWbbPHTH7Q-1" vertex="1">
          <mxGeometry x="173.75" y="1750" width="430" height="20" as="geometry" />
        </mxCell>
        <mxCell id="Kdr-5v6P0D8GCwmmiRnU-76" value="" style="html=1;verticalAlign=bottom;endArrow=block;startArrow=oval;startFill=1;endFill=1;" parent="GlQX0pFQhknWbbPHTH7Q-1" edge="1">
          <mxGeometry x="-0.0211" width="80" relative="1" as="geometry">
            <mxPoint x="98.75" y="1810" as="sourcePoint" />
            <mxPoint x="738.25" y="1810" as="targetPoint" />
            <Array as="points">
              <mxPoint x="273.25" y="1810" />
            </Array>
            <mxPoint as="offset" />
          </mxGeometry>
        </mxCell>
        <mxCell id="Kdr-5v6P0D8GCwmmiRnU-77" value="" style="html=1;verticalAlign=bottom;endArrow=oval;startArrow=block;startFill=1;endFill=1;" parent="GlQX0pFQhknWbbPHTH7Q-1" edge="1">
          <mxGeometry x="-0.0211" width="80" relative="1" as="geometry">
            <mxPoint x="104" y="1850" as="sourcePoint" />
            <mxPoint x="743.5" y="1850" as="targetPoint" />
            <Array as="points">
              <mxPoint x="278.5" y="1850" />
            </Array>
            <mxPoint as="offset" />
          </mxGeometry>
        </mxCell>
        <mxCell id="Kdr-5v6P0D8GCwmmiRnU-79" value="5.13 L&#39;employé clique sur Mise en circulation" style="text;html=1;align=center;verticalAlign=middle;resizable=0;points=[];autosize=1;" parent="GlQX0pFQhknWbbPHTH7Q-1" vertex="1">
          <mxGeometry x="268.75" y="1790" width="250" height="20" as="geometry" />
        </mxCell>
        <mxCell id="Kdr-5v6P0D8GCwmmiRnU-80" value="5.14 Le système génère une fiche de prêt avec le numéro lecteur, la côte du document, la date et le poste utilisé" style="text;html=1;align=center;verticalAlign=middle;resizable=0;points=[];autosize=1;" parent="GlQX0pFQhknWbbPHTH7Q-1" vertex="1">
          <mxGeometry x="123.75" y="1830" width="610" height="20" as="geometry" />
        </mxCell>
        <mxCell id="UsHf9G6kprMbJF8UKCVp-17" value="" style="shape=umlLifeline;participant=umlEntity;perimeter=lifelinePerimeter;whiteSpace=wrap;html=1;container=1;collapsible=0;recursiveResize=0;verticalAlign=top;spacingTop=36;outlineConnect=0;" parent="GlQX0pFQhknWbbPHTH7Q-1" vertex="1">
          <mxGeometry x="1525" y="-1090" width="40" height="720" as="geometry" />
        </mxCell>
        <mxCell id="RsuHl5o0PD6aeg7SA6SR-0" value="5.IX L&#39;employé clique sur le résultat" style="html=1;verticalAlign=bottom;endArrow=oval;endFill=1;startArrow=block;startFill=1;" parent="GlQX0pFQhknWbbPHTH7Q-1" target="UsHf9G6kprMbJF8UKCVp-17" edge="1">
          <mxGeometry x="-0.0211" width="80" relative="1" as="geometry">
            <mxPoint x="902.0700000000002" y="-635" as="sourcePoint" />
            <mxPoint x="1547.5699999999997" y="-635" as="targetPoint" />
            <Array as="points" />
            <mxPoint as="offset" />
          </mxGeometry>
        </mxCell>
      </root>
    </mxGraphModel>
  </diagram>
  <diagram id="COqWGzyWj488WH0DXc6v" name="Diagramme activité">
    <mxGraphModel dx="1038" dy="2911" grid="1" gridSize="10" guides="1" tooltips="1" connect="1" arrows="1" fold="1" page="1" pageScale="1" pageWidth="1654" pageHeight="2336" math="0" shadow="0">
      <root>
        <mxCell id="C4ZcoJIL0khpQqw4kgku-0" />
        <mxCell id="C4ZcoJIL0khpQqw4kgku-1" parent="C4ZcoJIL0khpQqw4kgku-0" />
        <mxCell id="7Vc9P6MjVWq37tVGS_8I-0" value="" style="ellipse;html=1;shape=startState;fillColor=#000000;strokeColor=#ff0000;" parent="C4ZcoJIL0khpQqw4kgku-1" vertex="1">
          <mxGeometry x="825" y="-2090" width="30" height="30" as="geometry" />
        </mxCell>
        <mxCell id="7Vc9P6MjVWq37tVGS_8I-1" value="" style="edgeStyle=orthogonalEdgeStyle;html=1;verticalAlign=bottom;endArrow=open;endSize=8;strokeColor=#ff0000;" parent="C4ZcoJIL0khpQqw4kgku-1" source="7Vc9P6MjVWq37tVGS_8I-0" edge="1">
          <mxGeometry relative="1" as="geometry">
            <mxPoint x="840" y="-2000" as="targetPoint" />
          </mxGeometry>
        </mxCell>
        <mxCell id="Ui2oRSyJ9mDi6Ku9YCtN-0" value="&lt;b&gt;&lt;font style=&quot;font-size: 20px&quot;&gt;Scénario principal : l&#39;employé/bénévole effectue un emprunt à la maison&lt;/font&gt;&lt;/b&gt;" style="text;html=1;align=center;verticalAlign=middle;resizable=0;points=[];autosize=1;" parent="C4ZcoJIL0khpQqw4kgku-1" vertex="1">
          <mxGeometry x="480" y="-2120" width="700" height="20" as="geometry" />
        </mxCell>
        <mxCell id="Ui2oRSyJ9mDi6Ku9YCtN-1" value="connexion session" style="rounded=1;whiteSpace=wrap;html=1;arcSize=40;fontColor=#000000;fillColor=#ffffc0;strokeColor=#ff0000;" parent="C4ZcoJIL0khpQqw4kgku-1" vertex="1">
          <mxGeometry x="780" y="-2000" width="120" height="40" as="geometry" />
        </mxCell>
        <mxCell id="Ui2oRSyJ9mDi6Ku9YCtN-2" value="" style="edgeStyle=orthogonalEdgeStyle;html=1;verticalAlign=bottom;endArrow=open;endSize=8;strokeColor=#ff0000;" parent="C4ZcoJIL0khpQqw4kgku-1" source="Ui2oRSyJ9mDi6Ku9YCtN-1" edge="1">
          <mxGeometry relative="1" as="geometry">
            <mxPoint x="840" y="-1900" as="targetPoint" />
          </mxGeometry>
        </mxCell>
        <mxCell id="Ui2oRSyJ9mDi6Ku9YCtN-3" value="Bénévole" style="rhombus;whiteSpace=wrap;html=1;fillColor=#ffffc0;strokeColor=#ff0000;" parent="C4ZcoJIL0khpQqw4kgku-1" vertex="1">
          <mxGeometry x="800" y="-1900" width="80" height="40" as="geometry" />
        </mxCell>
        <mxCell id="Ui2oRSyJ9mDi6Ku9YCtN-4" value="no" style="edgeStyle=orthogonalEdgeStyle;html=1;align=left;verticalAlign=bottom;endArrow=open;endSize=8;strokeColor=#ff0000;" parent="C4ZcoJIL0khpQqw4kgku-1" source="Ui2oRSyJ9mDi6Ku9YCtN-3" edge="1">
          <mxGeometry x="-1" relative="1" as="geometry">
            <mxPoint x="980" y="-1880" as="targetPoint" />
          </mxGeometry>
        </mxCell>
        <mxCell id="Ui2oRSyJ9mDi6Ku9YCtN-5" value="yes" style="edgeStyle=orthogonalEdgeStyle;html=1;align=left;verticalAlign=top;endArrow=open;endSize=8;strokeColor=#ff0000;" parent="C4ZcoJIL0khpQqw4kgku-1" source="Ui2oRSyJ9mDi6Ku9YCtN-3" edge="1">
          <mxGeometry x="-0.1429" relative="1" as="geometry">
            <mxPoint x="730" y="-1880" as="targetPoint" />
            <mxPoint as="offset" />
          </mxGeometry>
        </mxCell>
        <mxCell id="Ui2oRSyJ9mDi6Ku9YCtN-8" value="validité permission" style="rhombus;whiteSpace=wrap;html=1;fillColor=#ffffc0;strokeColor=#ff0000;" parent="C4ZcoJIL0khpQqw4kgku-1" vertex="1">
          <mxGeometry x="580" y="-1905" width="150" height="50" as="geometry" />
        </mxCell>
        <mxCell id="Ui2oRSyJ9mDi6Ku9YCtN-9" value="no" style="edgeStyle=orthogonalEdgeStyle;html=1;align=left;verticalAlign=bottom;endArrow=open;endSize=8;strokeColor=#ff0000;entryX=0;entryY=0.5;entryDx=0;entryDy=0;" parent="C4ZcoJIL0khpQqw4kgku-1" source="Ui2oRSyJ9mDi6Ku9YCtN-8" target="Ui2oRSyJ9mDi6Ku9YCtN-20" edge="1">
          <mxGeometry x="-1" y="-101" relative="1" as="geometry">
            <mxPoint x="655" y="-1800" as="targetPoint" />
            <Array as="points">
              <mxPoint x="655" y="-1650" />
            </Array>
            <mxPoint x="16" y="-55" as="offset" />
          </mxGeometry>
        </mxCell>
        <mxCell id="Ui2oRSyJ9mDi6Ku9YCtN-10" value="yes" style="edgeStyle=orthogonalEdgeStyle;html=1;align=left;verticalAlign=top;endArrow=open;endSize=8;strokeColor=#ff0000;exitX=0;exitY=0.5;exitDx=0;exitDy=0;" parent="C4ZcoJIL0khpQqw4kgku-1" source="Ui2oRSyJ9mDi6Ku9YCtN-8" edge="1">
          <mxGeometry x="-1" y="85" relative="1" as="geometry">
            <mxPoint x="570" y="-1980" as="targetPoint" />
            <Array as="points">
              <mxPoint x="570" y="-1880" />
            </Array>
            <mxPoint x="75" y="-45" as="offset" />
          </mxGeometry>
        </mxCell>
        <mxCell id="Ui2oRSyJ9mDi6Ku9YCtN-11" value="" style="shape=umlDestroy;whiteSpace=wrap;html=1;strokeWidth=3;" parent="C4ZcoJIL0khpQqw4kgku-1" vertex="1">
          <mxGeometry x="550" y="-2020" width="30" height="30" as="geometry" />
        </mxCell>
        <mxCell id="Ui2oRSyJ9mDi6Ku9YCtN-14" value="Employé" style="rhombus;whiteSpace=wrap;html=1;fillColor=#ffffc0;strokeColor=#ff0000;" parent="C4ZcoJIL0khpQqw4kgku-1" vertex="1">
          <mxGeometry x="980" y="-1900" width="80" height="40" as="geometry" />
        </mxCell>
        <mxCell id="Ui2oRSyJ9mDi6Ku9YCtN-15" value="no" style="edgeStyle=orthogonalEdgeStyle;html=1;align=left;verticalAlign=bottom;endArrow=open;endSize=8;strokeColor=#ff0000;" parent="C4ZcoJIL0khpQqw4kgku-1" source="Ui2oRSyJ9mDi6Ku9YCtN-14" edge="1">
          <mxGeometry x="-1" relative="1" as="geometry">
            <mxPoint x="1160" y="-1880" as="targetPoint" />
          </mxGeometry>
        </mxCell>
        <mxCell id="Ui2oRSyJ9mDi6Ku9YCtN-16" value="yes" style="edgeStyle=orthogonalEdgeStyle;html=1;align=left;verticalAlign=top;endArrow=open;endSize=8;strokeColor=#ff0000;entryX=1;entryY=0.5;entryDx=0;entryDy=0;exitX=0.5;exitY=1;exitDx=0;exitDy=0;" parent="C4ZcoJIL0khpQqw4kgku-1" source="Ui2oRSyJ9mDi6Ku9YCtN-14" target="Ui2oRSyJ9mDi6Ku9YCtN-18" edge="1">
          <mxGeometry x="-1" relative="1" as="geometry">
            <mxPoint x="1020" y="-1800" as="targetPoint" />
          </mxGeometry>
        </mxCell>
        <mxCell id="Ui2oRSyJ9mDi6Ku9YCtN-17" value="" style="shape=umlDestroy;whiteSpace=wrap;html=1;strokeWidth=3;" parent="C4ZcoJIL0khpQqw4kgku-1" vertex="1">
          <mxGeometry x="1170" y="-1895" width="30" height="30" as="geometry" />
        </mxCell>
        <mxCell id="Ui2oRSyJ9mDi6Ku9YCtN-18" value="affichage catégories" style="rounded=1;whiteSpace=wrap;html=1;arcSize=40;fontColor=#000000;fillColor=#ffffc0;strokeColor=#ff0000;" parent="C4ZcoJIL0khpQqw4kgku-1" vertex="1">
          <mxGeometry x="780" y="-1820" width="120" height="40" as="geometry" />
        </mxCell>
        <mxCell id="Ui2oRSyJ9mDi6Ku9YCtN-20" value="Gestion des prêts" style="rounded=1;whiteSpace=wrap;html=1;arcSize=40;fontColor=#000000;fillColor=#ffffc0;strokeColor=#ff0000;" parent="C4ZcoJIL0khpQqw4kgku-1" vertex="1">
          <mxGeometry x="691" y="-1670" width="120" height="40" as="geometry" />
        </mxCell>
        <mxCell id="Ui2oRSyJ9mDi6Ku9YCtN-21" value="" style="edgeStyle=orthogonalEdgeStyle;html=1;verticalAlign=bottom;endArrow=open;endSize=8;strokeColor=#ff0000;" parent="C4ZcoJIL0khpQqw4kgku-1" source="Ui2oRSyJ9mDi6Ku9YCtN-20" edge="1">
          <mxGeometry relative="1" as="geometry">
            <mxPoint x="751" y="-1570" as="targetPoint" />
            <Array as="points">
              <mxPoint x="751" y="-1600" />
              <mxPoint x="751" y="-1600" />
            </Array>
          </mxGeometry>
        </mxCell>
        <mxCell id="Ui2oRSyJ9mDi6Ku9YCtN-22" value="affichage catégories" style="rounded=1;whiteSpace=wrap;html=1;arcSize=40;fontColor=#000000;fillColor=#ffffc0;strokeColor=#ff0000;" parent="C4ZcoJIL0khpQqw4kgku-1" vertex="1">
          <mxGeometry x="691" y="-1570" width="120" height="40" as="geometry" />
        </mxCell>
        <mxCell id="Ui2oRSyJ9mDi6Ku9YCtN-23" value="" style="edgeStyle=orthogonalEdgeStyle;html=1;verticalAlign=bottom;endArrow=open;endSize=8;strokeColor=#ff0000;" parent="C4ZcoJIL0khpQqw4kgku-1" source="Ui2oRSyJ9mDi6Ku9YCtN-22" edge="1">
          <mxGeometry relative="1" as="geometry">
            <mxPoint x="721" y="-1470" as="targetPoint" />
          </mxGeometry>
        </mxCell>
        <mxCell id="Ui2oRSyJ9mDi6Ku9YCtN-24" value="Emprunt à la maison" style="rounded=1;whiteSpace=wrap;html=1;arcSize=40;fontColor=#000000;fillColor=#ffffc0;strokeColor=#ff0000;" parent="C4ZcoJIL0khpQqw4kgku-1" vertex="1">
          <mxGeometry x="661" y="-1470" width="120" height="40" as="geometry" />
        </mxCell>
        <mxCell id="Ui2oRSyJ9mDi6Ku9YCtN-25" value="" style="edgeStyle=orthogonalEdgeStyle;html=1;verticalAlign=bottom;endArrow=open;endSize=8;strokeColor=#ff0000;" parent="C4ZcoJIL0khpQqw4kgku-1" source="Ui2oRSyJ9mDi6Ku9YCtN-24" edge="1">
          <mxGeometry relative="1" as="geometry">
            <mxPoint x="721" y="-1370" as="targetPoint" />
          </mxGeometry>
        </mxCell>
        <mxCell id="Ui2oRSyJ9mDi6Ku9YCtN-28" value="Identification lecteur" style="rhombus;whiteSpace=wrap;html=1;fillColor=#ffffc0;strokeColor=#ff0000;" parent="C4ZcoJIL0khpQqw4kgku-1" vertex="1">
          <mxGeometry x="646" y="-1370" width="150" height="40" as="geometry" />
        </mxCell>
        <mxCell id="Ui2oRSyJ9mDi6Ku9YCtN-29" value="no" style="edgeStyle=orthogonalEdgeStyle;html=1;align=left;verticalAlign=bottom;endArrow=open;endSize=8;strokeColor=#ff0000;" parent="C4ZcoJIL0khpQqw4kgku-1" source="Ui2oRSyJ9mDi6Ku9YCtN-28" edge="1">
          <mxGeometry x="-1" relative="1" as="geometry">
            <mxPoint x="861" y="-1350" as="targetPoint" />
          </mxGeometry>
        </mxCell>
        <mxCell id="Ui2oRSyJ9mDi6Ku9YCtN-30" value="yes" style="edgeStyle=orthogonalEdgeStyle;html=1;align=left;verticalAlign=top;endArrow=open;endSize=8;strokeColor=#ff0000;" parent="C4ZcoJIL0khpQqw4kgku-1" source="Ui2oRSyJ9mDi6Ku9YCtN-28" edge="1">
          <mxGeometry x="-1" relative="1" as="geometry">
            <mxPoint x="721" y="-1270" as="targetPoint" />
          </mxGeometry>
        </mxCell>
        <mxCell id="Ui2oRSyJ9mDi6Ku9YCtN-33" value="Inscription" style="rhombus;whiteSpace=wrap;html=1;fillColor=#ffffc0;strokeColor=#ff0000;" parent="C4ZcoJIL0khpQqw4kgku-1" vertex="1">
          <mxGeometry x="1230" y="-1370" width="80" height="40" as="geometry" />
        </mxCell>
        <mxCell id="Ui2oRSyJ9mDi6Ku9YCtN-35" value="yes" style="edgeStyle=orthogonalEdgeStyle;html=1;align=left;verticalAlign=top;endArrow=open;endSize=8;strokeColor=#ff0000;" parent="C4ZcoJIL0khpQqw4kgku-1" source="Ui2oRSyJ9mDi6Ku9YCtN-33" edge="1">
          <mxGeometry x="-1" relative="1" as="geometry">
            <mxPoint x="1270" y="-1270" as="targetPoint" />
          </mxGeometry>
        </mxCell>
        <mxCell id="Ui2oRSyJ9mDi6Ku9YCtN-38" value="Oubli de carte" style="rhombus;whiteSpace=wrap;html=1;fillColor=#ffffc0;strokeColor=#ff0000;" parent="C4ZcoJIL0khpQqw4kgku-1" vertex="1">
          <mxGeometry x="860" y="-1375" width="100" height="50" as="geometry" />
        </mxCell>
        <mxCell id="Ui2oRSyJ9mDi6Ku9YCtN-39" value="no" style="edgeStyle=orthogonalEdgeStyle;html=1;align=left;verticalAlign=bottom;endArrow=open;endSize=8;strokeColor=#ff0000;" parent="C4ZcoJIL0khpQqw4kgku-1" source="Ui2oRSyJ9mDi6Ku9YCtN-38" edge="1">
          <mxGeometry x="-1" relative="1" as="geometry">
            <mxPoint x="1040" y="-1350" as="targetPoint" />
            <Array as="points">
              <mxPoint x="920" y="-1350" />
            </Array>
          </mxGeometry>
        </mxCell>
        <mxCell id="Ui2oRSyJ9mDi6Ku9YCtN-40" value="yes" style="edgeStyle=orthogonalEdgeStyle;html=1;align=left;verticalAlign=top;endArrow=open;endSize=8;strokeColor=#ff0000;entryX=0.5;entryY=0;entryDx=0;entryDy=0;" parent="C4ZcoJIL0khpQqw4kgku-1" source="Ui2oRSyJ9mDi6Ku9YCtN-38" target="Ui2oRSyJ9mDi6Ku9YCtN-44" edge="1">
          <mxGeometry x="-1" relative="1" as="geometry">
            <mxPoint x="910" y="-1280" as="targetPoint" />
          </mxGeometry>
        </mxCell>
        <mxCell id="Ui2oRSyJ9mDi6Ku9YCtN-41" value="" style="shape=umlDestroy;whiteSpace=wrap;html=1;strokeWidth=3;" parent="C4ZcoJIL0khpQqw4kgku-1" vertex="1">
          <mxGeometry x="1065" y="-1240" width="30" height="30" as="geometry" />
        </mxCell>
        <mxCell id="Ui2oRSyJ9mDi6Ku9YCtN-42" value="Formulaire d&#39;inscription" style="rounded=1;whiteSpace=wrap;html=1;arcSize=40;fontColor=#000000;fillColor=#ffffc0;strokeColor=#ff0000;" parent="C4ZcoJIL0khpQqw4kgku-1" vertex="1">
          <mxGeometry x="1220" y="-1270" width="100" height="40" as="geometry" />
        </mxCell>
        <mxCell id="Ui2oRSyJ9mDi6Ku9YCtN-43" value="" style="edgeStyle=orthogonalEdgeStyle;html=1;verticalAlign=bottom;endArrow=open;endSize=8;strokeColor=#ff0000;entryX=1;entryY=0.5;entryDx=0;entryDy=0;" parent="C4ZcoJIL0khpQqw4kgku-1" source="Ui2oRSyJ9mDi6Ku9YCtN-42" target="Ui2oRSyJ9mDi6Ku9YCtN-65" edge="1">
          <mxGeometry relative="1" as="geometry">
            <mxPoint x="770" y="-1140" as="targetPoint" />
            <Array as="points">
              <mxPoint x="1270" y="-1138" />
            </Array>
          </mxGeometry>
        </mxCell>
        <mxCell id="Ui2oRSyJ9mDi6Ku9YCtN-44" value="Recherche lecteur" style="rounded=1;whiteSpace=wrap;html=1;arcSize=40;fontColor=#000000;fillColor=#ffffc0;strokeColor=#ff0000;" parent="C4ZcoJIL0khpQqw4kgku-1" vertex="1">
          <mxGeometry x="850" y="-1270" width="120" height="40" as="geometry" />
        </mxCell>
        <mxCell id="Ui2oRSyJ9mDi6Ku9YCtN-45" value="" style="edgeStyle=orthogonalEdgeStyle;html=1;verticalAlign=bottom;endArrow=open;endSize=8;strokeColor=#ff0000;entryX=1;entryY=0.5;entryDx=0;entryDy=0;exitX=0.5;exitY=1;exitDx=0;exitDy=0;" parent="C4ZcoJIL0khpQqw4kgku-1" source="Ui2oRSyJ9mDi6Ku9YCtN-44" target="Ui2oRSyJ9mDi6Ku9YCtN-65" edge="1">
          <mxGeometry relative="1" as="geometry">
            <mxPoint x="910" y="-1170" as="targetPoint" />
          </mxGeometry>
        </mxCell>
        <mxCell id="Ui2oRSyJ9mDi6Ku9YCtN-46" value="Lecture carte" style="rounded=1;whiteSpace=wrap;html=1;arcSize=40;fontColor=#000000;fillColor=#ffffc0;strokeColor=#ff0000;" parent="C4ZcoJIL0khpQqw4kgku-1" vertex="1">
          <mxGeometry x="661" y="-1270" width="120" height="40" as="geometry" />
        </mxCell>
        <mxCell id="Ui2oRSyJ9mDi6Ku9YCtN-47" value="" style="edgeStyle=orthogonalEdgeStyle;html=1;verticalAlign=bottom;endArrow=open;endSize=8;strokeColor=#ff0000;entryX=0.5;entryY=0;entryDx=0;entryDy=0;" parent="C4ZcoJIL0khpQqw4kgku-1" source="Ui2oRSyJ9mDi6Ku9YCtN-46" target="Ui2oRSyJ9mDi6Ku9YCtN-65" edge="1">
          <mxGeometry relative="1" as="geometry">
            <mxPoint x="721" y="-1170" as="targetPoint" />
          </mxGeometry>
        </mxCell>
        <mxCell id="Ui2oRSyJ9mDi6Ku9YCtN-50" value="modalités d&#39;emprunt" style="rhombus;whiteSpace=wrap;html=1;fillColor=#ffffc0;strokeColor=#ff0000;" parent="C4ZcoJIL0khpQqw4kgku-1" vertex="1">
          <mxGeometry x="537" y="-1168" width="100" height="60" as="geometry" />
        </mxCell>
        <mxCell id="Ui2oRSyJ9mDi6Ku9YCtN-51" value="no" style="edgeStyle=orthogonalEdgeStyle;html=1;align=left;verticalAlign=bottom;endArrow=open;endSize=8;strokeColor=#ff0000;" parent="C4ZcoJIL0khpQqw4kgku-1" source="Ui2oRSyJ9mDi6Ku9YCtN-50" edge="1">
          <mxGeometry x="-1" relative="1" as="geometry">
            <mxPoint x="477" y="-1138" as="targetPoint" />
          </mxGeometry>
        </mxCell>
        <mxCell id="Ui2oRSyJ9mDi6Ku9YCtN-52" value="yes" style="edgeStyle=orthogonalEdgeStyle;html=1;align=left;verticalAlign=top;endArrow=open;endSize=8;strokeColor=#ff0000;" parent="C4ZcoJIL0khpQqw4kgku-1" source="Ui2oRSyJ9mDi6Ku9YCtN-50" edge="1">
          <mxGeometry x="-1" relative="1" as="geometry">
            <mxPoint x="587" y="-1068" as="targetPoint" />
          </mxGeometry>
        </mxCell>
        <mxCell id="Ui2oRSyJ9mDi6Ku9YCtN-53" value="Message d&#39;erreur" style="rounded=1;whiteSpace=wrap;html=1;arcSize=40;fontColor=#000000;fillColor=#ffffc0;strokeColor=#ff0000;" parent="C4ZcoJIL0khpQqw4kgku-1" vertex="1">
          <mxGeometry x="357" y="-1158" width="120" height="40" as="geometry" />
        </mxCell>
        <mxCell id="Ui2oRSyJ9mDi6Ku9YCtN-54" value="" style="edgeStyle=orthogonalEdgeStyle;html=1;verticalAlign=bottom;endArrow=open;endSize=8;strokeColor=#ff0000;exitX=0;exitY=0.5;exitDx=0;exitDy=0;entryX=0.5;entryY=0;entryDx=0;entryDy=0;" parent="C4ZcoJIL0khpQqw4kgku-1" source="Ui2oRSyJ9mDi6Ku9YCtN-53" target="Ui2oRSyJ9mDi6Ku9YCtN-58" edge="1">
          <mxGeometry relative="1" as="geometry">
            <mxPoint x="417" y="-1058" as="targetPoint" />
            <Array as="points">
              <mxPoint x="308" y="-1138" />
              <mxPoint x="308" y="-1078" />
              <mxPoint x="307" y="-1078" />
            </Array>
          </mxGeometry>
        </mxCell>
        <mxCell id="Ui2oRSyJ9mDi6Ku9YCtN-58" value="régularisation" style="rhombus;whiteSpace=wrap;html=1;fillColor=#ffffc0;strokeColor=#ff0000;" parent="C4ZcoJIL0khpQqw4kgku-1" vertex="1">
          <mxGeometry x="260" y="-1074" width="95" height="50" as="geometry" />
        </mxCell>
        <mxCell id="Ui2oRSyJ9mDi6Ku9YCtN-59" value="no" style="edgeStyle=orthogonalEdgeStyle;html=1;align=left;verticalAlign=bottom;endArrow=open;endSize=8;strokeColor=#ff0000;exitX=1;exitY=0.5;exitDx=0;exitDy=0;entryX=0;entryY=0.5;entryDx=0;entryDy=0;" parent="C4ZcoJIL0khpQqw4kgku-1" source="Ui2oRSyJ9mDi6Ku9YCtN-58" target="Ui2oRSyJ9mDi6Ku9YCtN-63" edge="1">
          <mxGeometry x="-1" y="-63" relative="1" as="geometry">
            <mxPoint x="497" y="-1049" as="targetPoint" />
            <Array as="points" />
            <mxPoint x="-47" y="-22" as="offset" />
          </mxGeometry>
        </mxCell>
        <mxCell id="Ui2oRSyJ9mDi6Ku9YCtN-60" value="yes" style="edgeStyle=orthogonalEdgeStyle;html=1;align=left;verticalAlign=top;endArrow=open;endSize=8;strokeColor=#ff0000;exitX=0.5;exitY=1;exitDx=0;exitDy=0;" parent="C4ZcoJIL0khpQqw4kgku-1" source="Ui2oRSyJ9mDi6Ku9YCtN-58" edge="1">
          <mxGeometry x="-1" y="74" relative="1" as="geometry">
            <mxPoint x="307" y="-958" as="targetPoint" />
            <mxPoint x="300" y="-1017" as="sourcePoint" />
            <Array as="points">
              <mxPoint x="307" y="-1018" />
            </Array>
            <mxPoint x="-4" y="-25" as="offset" />
          </mxGeometry>
        </mxCell>
        <mxCell id="Ui2oRSyJ9mDi6Ku9YCtN-62" value="" style="shape=umlDestroy;whiteSpace=wrap;html=1;strokeWidth=3;" parent="C4ZcoJIL0khpQqw4kgku-1" vertex="1">
          <mxGeometry x="287" y="-948" width="30" height="30" as="geometry" />
        </mxCell>
        <mxCell id="Ui2oRSyJ9mDi6Ku9YCtN-63" value="scan document" style="rounded=1;whiteSpace=wrap;html=1;arcSize=40;fontColor=#000000;fillColor=#ffffc0;strokeColor=#ff0000;" parent="C4ZcoJIL0khpQqw4kgku-1" vertex="1">
          <mxGeometry x="527" y="-1069" width="120" height="40" as="geometry" />
        </mxCell>
        <mxCell id="Ui2oRSyJ9mDi6Ku9YCtN-64" value="" style="edgeStyle=orthogonalEdgeStyle;html=1;verticalAlign=bottom;endArrow=open;endSize=8;strokeColor=#ff0000;" parent="C4ZcoJIL0khpQqw4kgku-1" source="Ui2oRSyJ9mDi6Ku9YCtN-63" edge="1">
          <mxGeometry relative="1" as="geometry">
            <mxPoint x="587" y="-958" as="targetPoint" />
          </mxGeometry>
        </mxCell>
        <mxCell id="Ui2oRSyJ9mDi6Ku9YCtN-65" value="connexion fiche lecteur" style="rounded=1;whiteSpace=wrap;html=1;arcSize=40;fontColor=#000000;fillColor=#ffffc0;strokeColor=#ff0000;" parent="C4ZcoJIL0khpQqw4kgku-1" vertex="1">
          <mxGeometry x="660" y="-1158" width="120" height="40" as="geometry" />
        </mxCell>
        <mxCell id="Ui2oRSyJ9mDi6Ku9YCtN-66" value="" style="edgeStyle=orthogonalEdgeStyle;html=1;verticalAlign=bottom;endArrow=open;endSize=8;strokeColor=#ff0000;exitX=0;exitY=0.5;exitDx=0;exitDy=0;entryX=1;entryY=0.5;entryDx=0;entryDy=0;" parent="C4ZcoJIL0khpQqw4kgku-1" source="Ui2oRSyJ9mDi6Ku9YCtN-65" target="Ui2oRSyJ9mDi6Ku9YCtN-50" edge="1">
          <mxGeometry relative="1" as="geometry">
            <mxPoint x="637" y="-1137" as="targetPoint" />
            <Array as="points" />
            <mxPoint x="716" y="-1138" as="sourcePoint" />
          </mxGeometry>
        </mxCell>
        <mxCell id="Ui2oRSyJ9mDi6Ku9YCtN-67" value="affichage et intégration référencement" style="rounded=1;whiteSpace=wrap;html=1;arcSize=40;fontColor=#000000;fillColor=#ffffc0;strokeColor=#ff0000;" parent="C4ZcoJIL0khpQqw4kgku-1" vertex="1">
          <mxGeometry x="527" y="-958" width="120" height="60" as="geometry" />
        </mxCell>
        <mxCell id="Ui2oRSyJ9mDi6Ku9YCtN-68" value="" style="edgeStyle=orthogonalEdgeStyle;html=1;verticalAlign=bottom;endArrow=open;endSize=8;strokeColor=#ff0000;" parent="C4ZcoJIL0khpQqw4kgku-1" source="Ui2oRSyJ9mDi6Ku9YCtN-67" edge="1">
          <mxGeometry relative="1" as="geometry">
            <mxPoint x="587" y="-858" as="targetPoint" />
          </mxGeometry>
        </mxCell>
        <mxCell id="Ui2oRSyJ9mDi6Ku9YCtN-71" value="validation" style="rhombus;whiteSpace=wrap;html=1;fillColor=#ffffc0;strokeColor=#ff0000;" parent="C4ZcoJIL0khpQqw4kgku-1" vertex="1">
          <mxGeometry x="547" y="-858" width="80" height="40" as="geometry" />
        </mxCell>
        <mxCell id="Ui2oRSyJ9mDi6Ku9YCtN-72" value="no" style="edgeStyle=orthogonalEdgeStyle;html=1;align=left;verticalAlign=bottom;endArrow=open;endSize=8;strokeColor=#ff0000;" parent="C4ZcoJIL0khpQqw4kgku-1" source="Ui2oRSyJ9mDi6Ku9YCtN-71" edge="1">
          <mxGeometry x="-1" relative="1" as="geometry">
            <mxPoint x="727" y="-838" as="targetPoint" />
          </mxGeometry>
        </mxCell>
        <mxCell id="Ui2oRSyJ9mDi6Ku9YCtN-73" value="yes" style="edgeStyle=orthogonalEdgeStyle;html=1;align=left;verticalAlign=top;endArrow=open;endSize=8;strokeColor=#ff0000;" parent="C4ZcoJIL0khpQqw4kgku-1" source="Ui2oRSyJ9mDi6Ku9YCtN-71" edge="1">
          <mxGeometry x="-1" relative="1" as="geometry">
            <mxPoint x="587" y="-758" as="targetPoint" />
          </mxGeometry>
        </mxCell>
        <mxCell id="Ui2oRSyJ9mDi6Ku9YCtN-74" value="" style="shape=umlDestroy;whiteSpace=wrap;html=1;strokeWidth=3;" parent="C4ZcoJIL0khpQqw4kgku-1" vertex="1">
          <mxGeometry x="737" y="-853" width="30" height="30" as="geometry" />
        </mxCell>
        <mxCell id="Ui2oRSyJ9mDi6Ku9YCtN-75" value="mise à jour état lecteur" style="rounded=1;whiteSpace=wrap;html=1;arcSize=40;fontColor=#000000;fillColor=#ffffc0;strokeColor=#ff0000;" parent="C4ZcoJIL0khpQqw4kgku-1" vertex="1">
          <mxGeometry x="587" y="-668" width="120" height="40" as="geometry" />
        </mxCell>
        <mxCell id="Ui2oRSyJ9mDi6Ku9YCtN-76" value="" style="edgeStyle=orthogonalEdgeStyle;html=1;verticalAlign=bottom;endArrow=open;endSize=8;strokeColor=#ff0000;exitX=0.799;exitY=0.754;exitDx=0;exitDy=0;exitPerimeter=0;" parent="C4ZcoJIL0khpQqw4kgku-1" source="Ui2oRSyJ9mDi6Ku9YCtN-77" edge="1">
          <mxGeometry relative="1" as="geometry">
            <mxPoint x="647" y="-668" as="targetPoint" />
            <Array as="points">
              <mxPoint x="647" y="-698" />
              <mxPoint x="647" y="-698" />
            </Array>
          </mxGeometry>
        </mxCell>
        <mxCell id="Ui2oRSyJ9mDi6Ku9YCtN-77" value="" style="shape=line;html=1;strokeWidth=6;strokeColor=#ff0000;" parent="C4ZcoJIL0khpQqw4kgku-1" vertex="1">
          <mxGeometry x="487" y="-758" width="200" height="10" as="geometry" />
        </mxCell>
        <mxCell id="Ui2oRSyJ9mDi6Ku9YCtN-78" value="" style="edgeStyle=orthogonalEdgeStyle;html=1;verticalAlign=bottom;endArrow=open;endSize=8;strokeColor=#ff0000;exitX=0.15;exitY=0.48;exitDx=0;exitDy=0;exitPerimeter=0;" parent="C4ZcoJIL0khpQqw4kgku-1" source="Ui2oRSyJ9mDi6Ku9YCtN-77" edge="1">
          <mxGeometry relative="1" as="geometry">
            <mxPoint x="517" y="-668" as="targetPoint" />
            <Array as="points" />
          </mxGeometry>
        </mxCell>
        <mxCell id="Ui2oRSyJ9mDi6Ku9YCtN-80" value="génération fiche de prêt" style="rounded=1;whiteSpace=wrap;html=1;arcSize=40;fontColor=#000000;fillColor=#ffffc0;strokeColor=#ff0000;" parent="C4ZcoJIL0khpQqw4kgku-1" vertex="1">
          <mxGeometry x="457" y="-668" width="120" height="40" as="geometry" />
        </mxCell>
        <mxCell id="Ui2oRSyJ9mDi6Ku9YCtN-81" value="" style="edgeStyle=orthogonalEdgeStyle;html=1;verticalAlign=bottom;endArrow=open;endSize=8;strokeColor=#ff0000;" parent="C4ZcoJIL0khpQqw4kgku-1" source="Ui2oRSyJ9mDi6Ku9YCtN-80" edge="1">
          <mxGeometry relative="1" as="geometry">
            <mxPoint x="517" y="-568" as="targetPoint" />
          </mxGeometry>
        </mxCell>
        <mxCell id="Ui2oRSyJ9mDi6Ku9YCtN-82" value="Impression" style="rhombus;whiteSpace=wrap;html=1;fillColor=#ffffc0;strokeColor=#ff0000;" parent="C4ZcoJIL0khpQqw4kgku-1" vertex="1">
          <mxGeometry x="477" y="-568" width="80" height="40" as="geometry" />
        </mxCell>
        <mxCell id="Ui2oRSyJ9mDi6Ku9YCtN-83" value="no" style="edgeStyle=orthogonalEdgeStyle;html=1;align=left;verticalAlign=bottom;endArrow=open;endSize=8;strokeColor=#ff0000;" parent="C4ZcoJIL0khpQqw4kgku-1" source="Ui2oRSyJ9mDi6Ku9YCtN-82" edge="1">
          <mxGeometry x="-1" relative="1" as="geometry">
            <mxPoint x="657" y="-548" as="targetPoint" />
          </mxGeometry>
        </mxCell>
        <mxCell id="Ui2oRSyJ9mDi6Ku9YCtN-84" value="yes" style="edgeStyle=orthogonalEdgeStyle;html=1;align=left;verticalAlign=top;endArrow=open;endSize=8;strokeColor=#ff0000;" parent="C4ZcoJIL0khpQqw4kgku-1" source="Ui2oRSyJ9mDi6Ku9YCtN-82" edge="1">
          <mxGeometry x="-1" relative="1" as="geometry">
            <mxPoint x="517" y="-468" as="targetPoint" />
          </mxGeometry>
        </mxCell>
        <mxCell id="Ui2oRSyJ9mDi6Ku9YCtN-85" value="Impression" style="rounded=1;whiteSpace=wrap;html=1;arcSize=40;fontColor=#000000;fillColor=#ffffc0;strokeColor=#ff0000;" parent="C4ZcoJIL0khpQqw4kgku-1" vertex="1">
          <mxGeometry x="457" y="-468" width="120" height="40" as="geometry" />
        </mxCell>
        <mxCell id="Ui2oRSyJ9mDi6Ku9YCtN-86" value="" style="edgeStyle=orthogonalEdgeStyle;html=1;verticalAlign=bottom;endArrow=open;endSize=8;strokeColor=#ff0000;" parent="C4ZcoJIL0khpQqw4kgku-1" source="Ui2oRSyJ9mDi6Ku9YCtN-85" edge="1">
          <mxGeometry relative="1" as="geometry">
            <mxPoint x="517" y="-368" as="targetPoint" />
          </mxGeometry>
        </mxCell>
        <mxCell id="Ui2oRSyJ9mDi6Ku9YCtN-87" value="" style="shape=umlDestroy;whiteSpace=wrap;html=1;strokeWidth=3;" parent="C4ZcoJIL0khpQqw4kgku-1" vertex="1">
          <mxGeometry x="502" y="-368" width="30" height="30" as="geometry" />
        </mxCell>
        <mxCell id="Ui2oRSyJ9mDi6Ku9YCtN-88" value="Envoi email" style="rounded=1;whiteSpace=wrap;html=1;arcSize=40;fontColor=#000000;fillColor=#ffffc0;strokeColor=#ff0000;" parent="C4ZcoJIL0khpQqw4kgku-1" vertex="1">
          <mxGeometry x="662" y="-568" width="120" height="40" as="geometry" />
        </mxCell>
        <mxCell id="Ui2oRSyJ9mDi6Ku9YCtN-89" value="" style="edgeStyle=orthogonalEdgeStyle;html=1;verticalAlign=bottom;endArrow=open;endSize=8;strokeColor=#ff0000;" parent="C4ZcoJIL0khpQqw4kgku-1" source="Ui2oRSyJ9mDi6Ku9YCtN-88" edge="1">
          <mxGeometry relative="1" as="geometry">
            <mxPoint x="722" y="-468" as="targetPoint" />
          </mxGeometry>
        </mxCell>
        <mxCell id="Ui2oRSyJ9mDi6Ku9YCtN-90" value="" style="shape=umlDestroy;whiteSpace=wrap;html=1;strokeWidth=3;" parent="C4ZcoJIL0khpQqw4kgku-1" vertex="1">
          <mxGeometry x="707" y="-463" width="30" height="30" as="geometry" />
        </mxCell>
        <mxCell id="Nsz9NLnM_eexilgSTSz4-0" value="Recherche document&amp;nbsp;" style="rounded=1;whiteSpace=wrap;html=1;arcSize=40;fontColor=#000000;fillColor=#ffffc0;strokeColor=#ff0000;" parent="C4ZcoJIL0khpQqw4kgku-1" vertex="1">
          <mxGeometry x="880" y="-1670" width="120" height="40" as="geometry" />
        </mxCell>
        <mxCell id="Nsz9NLnM_eexilgSTSz4-1" value="" style="edgeStyle=orthogonalEdgeStyle;html=1;verticalAlign=bottom;endArrow=open;endSize=8;strokeColor=#ff0000;exitX=1;exitY=0.5;exitDx=0;exitDy=0;" parent="C4ZcoJIL0khpQqw4kgku-1" source="Nsz9NLnM_eexilgSTSz4-0" edge="1">
          <mxGeometry relative="1" as="geometry">
            <mxPoint x="1090" y="-1650" as="targetPoint" />
          </mxGeometry>
        </mxCell>
        <mxCell id="Nsz9NLnM_eexilgSTSz4-3" value="Affichage fiche détails" style="rounded=1;whiteSpace=wrap;html=1;arcSize=40;fontColor=#000000;fillColor=#ffffc0;strokeColor=#ff0000;" parent="C4ZcoJIL0khpQqw4kgku-1" vertex="1">
          <mxGeometry x="1090" y="-1670" width="120" height="40" as="geometry" />
        </mxCell>
        <mxCell id="UdTeYi04sp2cdRURYFmu-0" value="" style="shape=line;html=1;strokeWidth=6;strokeColor=#ff0000;" parent="C4ZcoJIL0khpQqw4kgku-1" vertex="1">
          <mxGeometry x="740" y="-1730" width="200" height="10" as="geometry" />
        </mxCell>
        <mxCell id="UdTeYi04sp2cdRURYFmu-2" value="" style="edgeStyle=orthogonalEdgeStyle;html=1;verticalAlign=bottom;endArrow=open;endSize=8;strokeColor=#ff0000;" parent="C4ZcoJIL0khpQqw4kgku-1" edge="1">
          <mxGeometry relative="1" as="geometry">
            <mxPoint x="841.5" y="-1730" as="targetPoint" />
            <mxPoint x="841" y="-1780" as="sourcePoint" />
            <Array as="points">
              <mxPoint x="841" y="-1760" />
              <mxPoint x="841" y="-1760" />
            </Array>
          </mxGeometry>
        </mxCell>
        <mxCell id="UdTeYi04sp2cdRURYFmu-4" value="" style="edgeStyle=orthogonalEdgeStyle;html=1;verticalAlign=bottom;endArrow=open;endSize=8;strokeColor=#ff0000;" parent="C4ZcoJIL0khpQqw4kgku-1" edge="1">
          <mxGeometry relative="1" as="geometry">
            <mxPoint x="761.5" y="-1670" as="targetPoint" />
            <mxPoint x="761" y="-1720" as="sourcePoint" />
            <Array as="points">
              <mxPoint x="761" y="-1700" />
              <mxPoint x="761" y="-1700" />
            </Array>
          </mxGeometry>
        </mxCell>
        <mxCell id="UdTeYi04sp2cdRURYFmu-6" value="" style="edgeStyle=orthogonalEdgeStyle;html=1;verticalAlign=bottom;endArrow=open;endSize=8;strokeColor=#ff0000;" parent="C4ZcoJIL0khpQqw4kgku-1" edge="1">
          <mxGeometry relative="1" as="geometry">
            <mxPoint x="916.5" y="-1670" as="targetPoint" />
            <mxPoint x="916" y="-1720" as="sourcePoint" />
            <Array as="points">
              <mxPoint x="916" y="-1700" />
              <mxPoint x="916" y="-1700" />
            </Array>
          </mxGeometry>
        </mxCell>
        <mxCell id="UdTeYi04sp2cdRURYFmu-7" value="Modification fiche détails" style="rounded=1;whiteSpace=wrap;html=1;arcSize=40;fontColor=#000000;fillColor=#ffffc0;strokeColor=#ff0000;" parent="C4ZcoJIL0khpQqw4kgku-1" vertex="1">
          <mxGeometry x="1300" y="-1670" width="120" height="40" as="geometry" />
        </mxCell>
        <mxCell id="UdTeYi04sp2cdRURYFmu-8" value="" style="edgeStyle=orthogonalEdgeStyle;html=1;verticalAlign=bottom;endArrow=open;endSize=8;strokeColor=#ff0000;" parent="C4ZcoJIL0khpQqw4kgku-1" source="UdTeYi04sp2cdRURYFmu-7" edge="1">
          <mxGeometry relative="1" as="geometry">
            <mxPoint x="1360" y="-1560" as="targetPoint" />
            <Array as="points">
              <mxPoint x="1360" y="-1570" />
            </Array>
          </mxGeometry>
        </mxCell>
        <mxCell id="UdTeYi04sp2cdRURYFmu-9" value="" style="edgeStyle=orthogonalEdgeStyle;html=1;verticalAlign=bottom;endArrow=open;endSize=8;strokeColor=#ff0000;exitX=1;exitY=0.5;exitDx=0;exitDy=0;" parent="C4ZcoJIL0khpQqw4kgku-1" edge="1">
          <mxGeometry relative="1" as="geometry">
            <mxPoint x="1300" y="-1650.5" as="targetPoint" />
            <mxPoint x="1210" y="-1650.5" as="sourcePoint" />
          </mxGeometry>
        </mxCell>
        <mxCell id="UdTeYi04sp2cdRURYFmu-10" value="Document perdu/volé" style="rhombus;whiteSpace=wrap;html=1;fillColor=#ffffc0;strokeColor=#ff0000;" parent="C4ZcoJIL0khpQqw4kgku-1" vertex="1">
          <mxGeometry x="1320" y="-1590" width="100" height="70" as="geometry" />
        </mxCell>
        <mxCell id="UdTeYi04sp2cdRURYFmu-11" value="no" style="edgeStyle=orthogonalEdgeStyle;html=1;align=left;verticalAlign=bottom;endArrow=open;endSize=8;strokeColor=#ff0000;" parent="C4ZcoJIL0khpQqw4kgku-1" source="UdTeYi04sp2cdRURYFmu-10" edge="1">
          <mxGeometry x="-1" relative="1" as="geometry">
            <mxPoint x="1530" y="-1555" as="targetPoint" />
            <Array as="points">
              <mxPoint x="1500" y="-1555" />
            </Array>
          </mxGeometry>
        </mxCell>
        <mxCell id="UdTeYi04sp2cdRURYFmu-12" value="yes" style="edgeStyle=orthogonalEdgeStyle;html=1;align=left;verticalAlign=top;endArrow=open;endSize=8;strokeColor=#ff0000;" parent="C4ZcoJIL0khpQqw4kgku-1" source="UdTeYi04sp2cdRURYFmu-10" edge="1">
          <mxGeometry x="-0.8947" y="20" relative="1" as="geometry">
            <mxPoint x="1480" y="-1440" as="targetPoint" />
            <Array as="points">
              <mxPoint x="1370" y="-1460" />
            </Array>
            <mxPoint as="offset" />
          </mxGeometry>
        </mxCell>
        <mxCell id="UdTeYi04sp2cdRURYFmu-13" value="" style="shape=umlDestroy;whiteSpace=wrap;html=1;strokeWidth=3;" parent="C4ZcoJIL0khpQqw4kgku-1" vertex="1">
          <mxGeometry x="1550" y="-1570" width="30" height="30" as="geometry" />
        </mxCell>
        <mxCell id="UdTeYi04sp2cdRURYFmu-14" value="Mise hors service du document" style="rounded=1;whiteSpace=wrap;html=1;arcSize=40;fontColor=#000000;fillColor=#ffffc0;strokeColor=#ff0000;" parent="C4ZcoJIL0khpQqw4kgku-1" vertex="1">
          <mxGeometry x="1420" y="-1440" width="120" height="40" as="geometry" />
        </mxCell>
        <mxCell id="UdTeYi04sp2cdRURYFmu-15" value="" style="edgeStyle=orthogonalEdgeStyle;html=1;verticalAlign=bottom;endArrow=open;endSize=8;strokeColor=#ff0000;" parent="C4ZcoJIL0khpQqw4kgku-1" source="UdTeYi04sp2cdRURYFmu-14" edge="1">
          <mxGeometry relative="1" as="geometry">
            <mxPoint x="1480" y="-1340" as="targetPoint" />
          </mxGeometry>
        </mxCell>
        <mxCell id="UdTeYi04sp2cdRURYFmu-16" value="" style="shape=umlDestroy;whiteSpace=wrap;html=1;strokeWidth=3;" parent="C4ZcoJIL0khpQqw4kgku-1" vertex="1">
          <mxGeometry x="1465" y="-1335" width="30" height="30" as="geometry" />
        </mxCell>
        <mxCell id="4bLIOBvknUUojw8miCyW-3" value="session employé" style="rhombus;whiteSpace=wrap;html=1;fillColor=#ffffc0;strokeColor=#ff0000;" parent="C4ZcoJIL0khpQqw4kgku-1" vertex="1">
          <mxGeometry x="1040" y="-1380" width="80" height="60" as="geometry" />
        </mxCell>
        <mxCell id="4bLIOBvknUUojw8miCyW-4" value="no" style="edgeStyle=orthogonalEdgeStyle;html=1;align=left;verticalAlign=bottom;endArrow=open;endSize=8;strokeColor=#ff0000;entryX=0;entryY=0.5;entryDx=0;entryDy=0;" parent="C4ZcoJIL0khpQqw4kgku-1" source="4bLIOBvknUUojw8miCyW-3" target="Ui2oRSyJ9mDi6Ku9YCtN-33" edge="1">
          <mxGeometry x="-1" y="-72" relative="1" as="geometry">
            <mxPoint x="1041" y="-1510" as="targetPoint" />
            <Array as="points">
              <mxPoint x="1170" y="-1350" />
              <mxPoint x="1170" y="-1350" />
            </Array>
            <mxPoint x="-40" y="-12" as="offset" />
          </mxGeometry>
        </mxCell>
        <mxCell id="4bLIOBvknUUojw8miCyW-5" value="yes" style="edgeStyle=orthogonalEdgeStyle;html=1;align=left;verticalAlign=top;endArrow=open;endSize=8;strokeColor=#ff0000;" parent="C4ZcoJIL0khpQqw4kgku-1" edge="1">
          <mxGeometry x="-0.8" y="92" relative="1" as="geometry">
            <mxPoint x="1080" y="-1240" as="targetPoint" />
            <mxPoint x="1080" y="-1320" as="sourcePoint" />
            <Array as="points">
              <mxPoint x="1080" y="-1330" />
              <mxPoint x="1080" y="-1330" />
            </Array>
            <mxPoint x="-2" y="-20" as="offset" />
          </mxGeometry>
        </mxCell>
      </root>
    </mxGraphModel>
  </diagram>
</mxfile>
